M48
; DRILL file {KiCad (5.1.6)-1} date 09/18/20 10:36:43
; FORMAT={-:-/ absolute / metric / decimal}
; #@! TF.CreationDate,2020-09-18T10:36:43+08:00
; #@! TF.GenerationSoftware,Kicad,Pcbnew,(5.1.6)-1
; #@! TF.FileFunction,Plated,1,2,PTH
FMAT,2
METRIC
T1C0.400
T2C0.800
%
G90
G05
T1
X126.07Y-95.82
X144.97Y-92.09
X146.27Y-93.12
T2
X143.5Y-86.75
X145.5Y-86.75
X147.5Y-86.75
X113.2Y-86.75
X115.2Y-86.75
X117.2Y-86.75
X135.41Y-101.47
X137.41Y-101.47
X165.71Y-101.47
X167.71Y-101.47
X115.21Y-101.47
X117.21Y-101.47
X125.31Y-101.47
X127.31Y-101.47
X133.4Y-86.75
X135.4Y-86.75
X137.4Y-86.75
X155.61Y-101.47
X157.61Y-101.47
X123.3Y-86.75
X125.3Y-86.75
X127.3Y-86.75
X145.51Y-101.47
X147.51Y-101.47
X153.6Y-86.75
X155.6Y-86.75
X157.6Y-86.75
X163.7Y-86.75
X165.7Y-86.75
X167.7Y-86.75
T0
M30
