%TF.GenerationSoftware,KiCad,Pcbnew,(5.1.6)-1*%
%TF.CreationDate,2020-09-18T10:34:42+08:00*%
%TF.ProjectId,Nu Multi Board,4e75204d-756c-4746-9920-426f6172642e,rev?*%
%TF.SameCoordinates,Original*%
%TF.FileFunction,Copper,L2,Bot*%
%TF.FilePolarity,Positive*%
%FSLAX46Y46*%
G04 Gerber Fmt 4.6, Leading zero omitted, Abs format (unit mm)*
G04 Created by KiCad (PCBNEW (5.1.6)-1) date 2020-09-18 10:34:42*
%MOMM*%
%LPD*%
G01*
G04 APERTURE LIST*
%TA.AperFunction,ComponentPad*%
%ADD10R,1.350000X1.350000*%
%TD*%
%TA.AperFunction,ComponentPad*%
%ADD11O,1.350000X1.350000*%
%TD*%
%TA.AperFunction,ViaPad*%
%ADD12C,0.600000*%
%TD*%
%TA.AperFunction,Conductor*%
%ADD13C,0.408400*%
%TD*%
%TA.AperFunction,Conductor*%
%ADD14C,0.254000*%
%TD*%
G04 APERTURE END LIST*
D10*
%TO.P,J1,1*%
%TO.N,GND*%
X157610000Y-101470000D03*
D11*
%TO.P,J1,2*%
%TO.N,Net-(J1-Pad2)*%
X155610000Y-101470000D03*
%TD*%
D10*
%TO.P,J2,1*%
%TO.N,GND*%
X153600000Y-86750000D03*
D11*
%TO.P,J2,2*%
X155600000Y-86750000D03*
%TO.P,J2,3*%
%TO.N,V+*%
X157600000Y-86750000D03*
%TD*%
D10*
%TO.P,J3,1*%
%TO.N,GND*%
X147510000Y-101470000D03*
D11*
%TO.P,J3,2*%
%TO.N,Net-(J13-Pad6)*%
X145510000Y-101470000D03*
%TD*%
D10*
%TO.P,J4,1*%
%TO.N,GND*%
X143500000Y-86750000D03*
D11*
%TO.P,J4,2*%
X145500000Y-86750000D03*
%TO.P,J4,3*%
%TO.N,V+*%
X147500000Y-86750000D03*
%TD*%
D10*
%TO.P,J5,1*%
%TO.N,GND*%
X137410000Y-101470000D03*
D11*
%TO.P,J5,2*%
%TO.N,Net-(J13-Pad5)*%
X135410000Y-101470000D03*
%TD*%
D10*
%TO.P,J6,1*%
%TO.N,GND*%
X133400000Y-86750000D03*
D11*
%TO.P,J6,2*%
X135400000Y-86750000D03*
%TO.P,J6,3*%
%TO.N,V+*%
X137400000Y-86750000D03*
%TD*%
D10*
%TO.P,J7,1*%
%TO.N,GND*%
X127310000Y-101470000D03*
D11*
%TO.P,J7,2*%
%TO.N,Net-(J13-Pad4)*%
X125310000Y-101470000D03*
%TD*%
D10*
%TO.P,J8,1*%
%TO.N,GND*%
X123300000Y-86750000D03*
D11*
%TO.P,J8,2*%
X125300000Y-86750000D03*
%TO.P,J8,3*%
%TO.N,V+*%
X127300000Y-86750000D03*
%TD*%
D10*
%TO.P,J9,1*%
%TO.N,GND*%
X117210000Y-101470000D03*
D11*
%TO.P,J9,2*%
%TO.N,Net-(J13-Pad3)*%
X115210000Y-101470000D03*
%TD*%
D10*
%TO.P,J10,1*%
%TO.N,GND*%
X113200000Y-86750000D03*
D11*
%TO.P,J10,2*%
X115200000Y-86750000D03*
%TO.P,J10,3*%
%TO.N,V+*%
X117200000Y-86750000D03*
%TD*%
D10*
%TO.P,J11,1*%
%TO.N,GND*%
X167710000Y-101470000D03*
D11*
%TO.P,J11,2*%
%TO.N,Net-(J11-Pad2)*%
X165710000Y-101470000D03*
%TD*%
D10*
%TO.P,J12,1*%
%TO.N,GND*%
X163700000Y-86750000D03*
D11*
%TO.P,J12,2*%
X165700000Y-86750000D03*
%TO.P,J12,3*%
%TO.N,V+*%
X167700000Y-86750000D03*
%TD*%
D12*
%TO.N,Net-(J13-Pad6)*%
X146270000Y-93120000D03*
%TO.N,Net-(J13-Pad4)*%
X144970000Y-92090000D03*
X126070000Y-95820000D03*
%TD*%
D13*
%TO.N,Net-(J13-Pad6)*%
X145510000Y-101470000D02*
X145510000Y-95360000D01*
X146690000Y-93540000D02*
X146270000Y-93120000D01*
X146690000Y-94180000D02*
X146690000Y-93540000D01*
X145510000Y-95360000D02*
X146690000Y-94180000D01*
%TO.N,Net-(J13-Pad4)*%
X129800000Y-92090000D02*
X144970000Y-92090000D01*
X126070000Y-95820000D02*
X129800000Y-92090000D01*
%TD*%
D14*
%TO.N,GND*%
G36*
X112400518Y-85449188D02*
G01*
X112280820Y-85485498D01*
X112170506Y-85544463D01*
X112073815Y-85623815D01*
X111994463Y-85720506D01*
X111935498Y-85830820D01*
X111899188Y-85950518D01*
X111886928Y-86075000D01*
X111890000Y-86464250D01*
X112048750Y-86623000D01*
X113073000Y-86623000D01*
X113073000Y-86603000D01*
X113327000Y-86603000D01*
X113327000Y-86623000D01*
X115073000Y-86623000D01*
X115073000Y-86603000D01*
X115327000Y-86603000D01*
X115327000Y-86623000D01*
X115347000Y-86623000D01*
X115347000Y-86877000D01*
X115327000Y-86877000D01*
X115327000Y-87894224D01*
X115529400Y-88017910D01*
X115630528Y-87987238D01*
X115863629Y-87879473D01*
X116071227Y-87728303D01*
X116245344Y-87539537D01*
X116320281Y-87416955D01*
X116344021Y-87452484D01*
X116497516Y-87605979D01*
X116678007Y-87726580D01*
X116878558Y-87809651D01*
X117091462Y-87852000D01*
X117308538Y-87852000D01*
X117521442Y-87809651D01*
X117721993Y-87726580D01*
X117902484Y-87605979D01*
X118055979Y-87452484D01*
X118074343Y-87425000D01*
X121986928Y-87425000D01*
X121999188Y-87549482D01*
X122035498Y-87669180D01*
X122094463Y-87779494D01*
X122173815Y-87876185D01*
X122270506Y-87955537D01*
X122380820Y-88014502D01*
X122500518Y-88050812D01*
X122625000Y-88063072D01*
X123014250Y-88060000D01*
X123173000Y-87901250D01*
X123173000Y-86877000D01*
X123427000Y-86877000D01*
X123427000Y-87901250D01*
X123585750Y-88060000D01*
X123975000Y-88063072D01*
X124099482Y-88050812D01*
X124219180Y-88014502D01*
X124329494Y-87955537D01*
X124426185Y-87876185D01*
X124503119Y-87782441D01*
X124636371Y-87879473D01*
X124869472Y-87987238D01*
X124970600Y-88017910D01*
X125173000Y-87894224D01*
X125173000Y-86877000D01*
X123427000Y-86877000D01*
X123173000Y-86877000D01*
X122148750Y-86877000D01*
X121990000Y-87035750D01*
X121986928Y-87425000D01*
X118074343Y-87425000D01*
X118176580Y-87271993D01*
X118259651Y-87071442D01*
X118302000Y-86858538D01*
X118302000Y-86641462D01*
X118259651Y-86428558D01*
X118176580Y-86228007D01*
X118055979Y-86047516D01*
X117902484Y-85894021D01*
X117721993Y-85773420D01*
X117521442Y-85690349D01*
X117308538Y-85648000D01*
X117091462Y-85648000D01*
X116878558Y-85690349D01*
X116678007Y-85773420D01*
X116497516Y-85894021D01*
X116344021Y-86047516D01*
X116320281Y-86083045D01*
X116245344Y-85960463D01*
X116071227Y-85771697D01*
X115863629Y-85620527D01*
X115630528Y-85512762D01*
X115529400Y-85482090D01*
X115327002Y-85605775D01*
X115327002Y-85447000D01*
X122522734Y-85447000D01*
X122500518Y-85449188D01*
X122380820Y-85485498D01*
X122270506Y-85544463D01*
X122173815Y-85623815D01*
X122094463Y-85720506D01*
X122035498Y-85830820D01*
X121999188Y-85950518D01*
X121986928Y-86075000D01*
X121990000Y-86464250D01*
X122148750Y-86623000D01*
X123173000Y-86623000D01*
X123173000Y-86603000D01*
X123427000Y-86603000D01*
X123427000Y-86623000D01*
X125173000Y-86623000D01*
X125173000Y-86603000D01*
X125427000Y-86603000D01*
X125427000Y-86623000D01*
X125447000Y-86623000D01*
X125447000Y-86877000D01*
X125427000Y-86877000D01*
X125427000Y-87894224D01*
X125629400Y-88017910D01*
X125730528Y-87987238D01*
X125963629Y-87879473D01*
X126171227Y-87728303D01*
X126345344Y-87539537D01*
X126420281Y-87416955D01*
X126444021Y-87452484D01*
X126597516Y-87605979D01*
X126778007Y-87726580D01*
X126978558Y-87809651D01*
X127191462Y-87852000D01*
X127408538Y-87852000D01*
X127621442Y-87809651D01*
X127821993Y-87726580D01*
X128002484Y-87605979D01*
X128155979Y-87452484D01*
X128174343Y-87425000D01*
X132086928Y-87425000D01*
X132099188Y-87549482D01*
X132135498Y-87669180D01*
X132194463Y-87779494D01*
X132273815Y-87876185D01*
X132370506Y-87955537D01*
X132480820Y-88014502D01*
X132600518Y-88050812D01*
X132725000Y-88063072D01*
X133114250Y-88060000D01*
X133273000Y-87901250D01*
X133273000Y-86877000D01*
X133527000Y-86877000D01*
X133527000Y-87901250D01*
X133685750Y-88060000D01*
X134075000Y-88063072D01*
X134199482Y-88050812D01*
X134319180Y-88014502D01*
X134429494Y-87955537D01*
X134526185Y-87876185D01*
X134603119Y-87782441D01*
X134736371Y-87879473D01*
X134969472Y-87987238D01*
X135070600Y-88017910D01*
X135273000Y-87894224D01*
X135273000Y-86877000D01*
X133527000Y-86877000D01*
X133273000Y-86877000D01*
X132248750Y-86877000D01*
X132090000Y-87035750D01*
X132086928Y-87425000D01*
X128174343Y-87425000D01*
X128276580Y-87271993D01*
X128359651Y-87071442D01*
X128402000Y-86858538D01*
X128402000Y-86641462D01*
X128359651Y-86428558D01*
X128276580Y-86228007D01*
X128155979Y-86047516D01*
X128002484Y-85894021D01*
X127821993Y-85773420D01*
X127621442Y-85690349D01*
X127408538Y-85648000D01*
X127191462Y-85648000D01*
X126978558Y-85690349D01*
X126778007Y-85773420D01*
X126597516Y-85894021D01*
X126444021Y-86047516D01*
X126420281Y-86083045D01*
X126345344Y-85960463D01*
X126171227Y-85771697D01*
X125963629Y-85620527D01*
X125730528Y-85512762D01*
X125629400Y-85482090D01*
X125427002Y-85605775D01*
X125427002Y-85447000D01*
X132622734Y-85447000D01*
X132600518Y-85449188D01*
X132480820Y-85485498D01*
X132370506Y-85544463D01*
X132273815Y-85623815D01*
X132194463Y-85720506D01*
X132135498Y-85830820D01*
X132099188Y-85950518D01*
X132086928Y-86075000D01*
X132090000Y-86464250D01*
X132248750Y-86623000D01*
X133273000Y-86623000D01*
X133273000Y-86603000D01*
X133527000Y-86603000D01*
X133527000Y-86623000D01*
X135273000Y-86623000D01*
X135273000Y-86603000D01*
X135527000Y-86603000D01*
X135527000Y-86623000D01*
X135547000Y-86623000D01*
X135547000Y-86877000D01*
X135527000Y-86877000D01*
X135527000Y-87894224D01*
X135729400Y-88017910D01*
X135830528Y-87987238D01*
X136063629Y-87879473D01*
X136271227Y-87728303D01*
X136445344Y-87539537D01*
X136520281Y-87416955D01*
X136544021Y-87452484D01*
X136697516Y-87605979D01*
X136878007Y-87726580D01*
X137078558Y-87809651D01*
X137291462Y-87852000D01*
X137508538Y-87852000D01*
X137721442Y-87809651D01*
X137921993Y-87726580D01*
X138102484Y-87605979D01*
X138255979Y-87452484D01*
X138274343Y-87425000D01*
X142186928Y-87425000D01*
X142199188Y-87549482D01*
X142235498Y-87669180D01*
X142294463Y-87779494D01*
X142373815Y-87876185D01*
X142470506Y-87955537D01*
X142580820Y-88014502D01*
X142700518Y-88050812D01*
X142825000Y-88063072D01*
X143214250Y-88060000D01*
X143373000Y-87901250D01*
X143373000Y-86877000D01*
X143627000Y-86877000D01*
X143627000Y-87901250D01*
X143785750Y-88060000D01*
X144175000Y-88063072D01*
X144299482Y-88050812D01*
X144419180Y-88014502D01*
X144529494Y-87955537D01*
X144626185Y-87876185D01*
X144703119Y-87782441D01*
X144836371Y-87879473D01*
X145069472Y-87987238D01*
X145170600Y-88017910D01*
X145373000Y-87894224D01*
X145373000Y-86877000D01*
X143627000Y-86877000D01*
X143373000Y-86877000D01*
X142348750Y-86877000D01*
X142190000Y-87035750D01*
X142186928Y-87425000D01*
X138274343Y-87425000D01*
X138376580Y-87271993D01*
X138459651Y-87071442D01*
X138502000Y-86858538D01*
X138502000Y-86641462D01*
X138459651Y-86428558D01*
X138376580Y-86228007D01*
X138255979Y-86047516D01*
X138102484Y-85894021D01*
X137921993Y-85773420D01*
X137721442Y-85690349D01*
X137508538Y-85648000D01*
X137291462Y-85648000D01*
X137078558Y-85690349D01*
X136878007Y-85773420D01*
X136697516Y-85894021D01*
X136544021Y-86047516D01*
X136520281Y-86083045D01*
X136445344Y-85960463D01*
X136271227Y-85771697D01*
X136063629Y-85620527D01*
X135830528Y-85512762D01*
X135729400Y-85482090D01*
X135527002Y-85605775D01*
X135527002Y-85447000D01*
X142722734Y-85447000D01*
X142700518Y-85449188D01*
X142580820Y-85485498D01*
X142470506Y-85544463D01*
X142373815Y-85623815D01*
X142294463Y-85720506D01*
X142235498Y-85830820D01*
X142199188Y-85950518D01*
X142186928Y-86075000D01*
X142190000Y-86464250D01*
X142348750Y-86623000D01*
X143373000Y-86623000D01*
X143373000Y-86603000D01*
X143627000Y-86603000D01*
X143627000Y-86623000D01*
X145373000Y-86623000D01*
X145373000Y-86603000D01*
X145627000Y-86603000D01*
X145627000Y-86623000D01*
X145647000Y-86623000D01*
X145647000Y-86877000D01*
X145627000Y-86877000D01*
X145627000Y-87894224D01*
X145829400Y-88017910D01*
X145930528Y-87987238D01*
X146163629Y-87879473D01*
X146371227Y-87728303D01*
X146545344Y-87539537D01*
X146620281Y-87416955D01*
X146644021Y-87452484D01*
X146797516Y-87605979D01*
X146978007Y-87726580D01*
X147178558Y-87809651D01*
X147391462Y-87852000D01*
X147608538Y-87852000D01*
X147821442Y-87809651D01*
X148021993Y-87726580D01*
X148202484Y-87605979D01*
X148355979Y-87452484D01*
X148374343Y-87425000D01*
X152286928Y-87425000D01*
X152299188Y-87549482D01*
X152335498Y-87669180D01*
X152394463Y-87779494D01*
X152473815Y-87876185D01*
X152570506Y-87955537D01*
X152680820Y-88014502D01*
X152800518Y-88050812D01*
X152925000Y-88063072D01*
X153314250Y-88060000D01*
X153473000Y-87901250D01*
X153473000Y-86877000D01*
X153727000Y-86877000D01*
X153727000Y-87901250D01*
X153885750Y-88060000D01*
X154275000Y-88063072D01*
X154399482Y-88050812D01*
X154519180Y-88014502D01*
X154629494Y-87955537D01*
X154726185Y-87876185D01*
X154803119Y-87782441D01*
X154936371Y-87879473D01*
X155169472Y-87987238D01*
X155270600Y-88017910D01*
X155473000Y-87894224D01*
X155473000Y-86877000D01*
X153727000Y-86877000D01*
X153473000Y-86877000D01*
X152448750Y-86877000D01*
X152290000Y-87035750D01*
X152286928Y-87425000D01*
X148374343Y-87425000D01*
X148476580Y-87271993D01*
X148559651Y-87071442D01*
X148602000Y-86858538D01*
X148602000Y-86641462D01*
X148559651Y-86428558D01*
X148476580Y-86228007D01*
X148355979Y-86047516D01*
X148202484Y-85894021D01*
X148021993Y-85773420D01*
X147821442Y-85690349D01*
X147608538Y-85648000D01*
X147391462Y-85648000D01*
X147178558Y-85690349D01*
X146978007Y-85773420D01*
X146797516Y-85894021D01*
X146644021Y-86047516D01*
X146620281Y-86083045D01*
X146545344Y-85960463D01*
X146371227Y-85771697D01*
X146163629Y-85620527D01*
X145930528Y-85512762D01*
X145829400Y-85482090D01*
X145627002Y-85605775D01*
X145627002Y-85447000D01*
X152822734Y-85447000D01*
X152800518Y-85449188D01*
X152680820Y-85485498D01*
X152570506Y-85544463D01*
X152473815Y-85623815D01*
X152394463Y-85720506D01*
X152335498Y-85830820D01*
X152299188Y-85950518D01*
X152286928Y-86075000D01*
X152290000Y-86464250D01*
X152448750Y-86623000D01*
X153473000Y-86623000D01*
X153473000Y-86603000D01*
X153727000Y-86603000D01*
X153727000Y-86623000D01*
X155473000Y-86623000D01*
X155473000Y-86603000D01*
X155727000Y-86603000D01*
X155727000Y-86623000D01*
X155747000Y-86623000D01*
X155747000Y-86877000D01*
X155727000Y-86877000D01*
X155727000Y-87894224D01*
X155929400Y-88017910D01*
X156030528Y-87987238D01*
X156263629Y-87879473D01*
X156471227Y-87728303D01*
X156645344Y-87539537D01*
X156720281Y-87416955D01*
X156744021Y-87452484D01*
X156897516Y-87605979D01*
X157078007Y-87726580D01*
X157278558Y-87809651D01*
X157491462Y-87852000D01*
X157708538Y-87852000D01*
X157921442Y-87809651D01*
X158121993Y-87726580D01*
X158302484Y-87605979D01*
X158455979Y-87452484D01*
X158474343Y-87425000D01*
X162386928Y-87425000D01*
X162399188Y-87549482D01*
X162435498Y-87669180D01*
X162494463Y-87779494D01*
X162573815Y-87876185D01*
X162670506Y-87955537D01*
X162780820Y-88014502D01*
X162900518Y-88050812D01*
X163025000Y-88063072D01*
X163414250Y-88060000D01*
X163573000Y-87901250D01*
X163573000Y-86877000D01*
X163827000Y-86877000D01*
X163827000Y-87901250D01*
X163985750Y-88060000D01*
X164375000Y-88063072D01*
X164499482Y-88050812D01*
X164619180Y-88014502D01*
X164729494Y-87955537D01*
X164826185Y-87876185D01*
X164903119Y-87782441D01*
X165036371Y-87879473D01*
X165269472Y-87987238D01*
X165370600Y-88017910D01*
X165573000Y-87894224D01*
X165573000Y-86877000D01*
X163827000Y-86877000D01*
X163573000Y-86877000D01*
X162548750Y-86877000D01*
X162390000Y-87035750D01*
X162386928Y-87425000D01*
X158474343Y-87425000D01*
X158576580Y-87271993D01*
X158659651Y-87071442D01*
X158702000Y-86858538D01*
X158702000Y-86641462D01*
X158659651Y-86428558D01*
X158576580Y-86228007D01*
X158455979Y-86047516D01*
X158302484Y-85894021D01*
X158121993Y-85773420D01*
X157921442Y-85690349D01*
X157708538Y-85648000D01*
X157491462Y-85648000D01*
X157278558Y-85690349D01*
X157078007Y-85773420D01*
X156897516Y-85894021D01*
X156744021Y-86047516D01*
X156720281Y-86083045D01*
X156645344Y-85960463D01*
X156471227Y-85771697D01*
X156263629Y-85620527D01*
X156030528Y-85512762D01*
X155929400Y-85482090D01*
X155727002Y-85605775D01*
X155727002Y-85447000D01*
X162922734Y-85447000D01*
X162900518Y-85449188D01*
X162780820Y-85485498D01*
X162670506Y-85544463D01*
X162573815Y-85623815D01*
X162494463Y-85720506D01*
X162435498Y-85830820D01*
X162399188Y-85950518D01*
X162386928Y-86075000D01*
X162390000Y-86464250D01*
X162548750Y-86623000D01*
X163573000Y-86623000D01*
X163573000Y-86603000D01*
X163827000Y-86603000D01*
X163827000Y-86623000D01*
X165573000Y-86623000D01*
X165573000Y-86603000D01*
X165827000Y-86603000D01*
X165827000Y-86623000D01*
X165847000Y-86623000D01*
X165847000Y-86877000D01*
X165827000Y-86877000D01*
X165827000Y-87894224D01*
X166029400Y-88017910D01*
X166130528Y-87987238D01*
X166363629Y-87879473D01*
X166571227Y-87728303D01*
X166745344Y-87539537D01*
X166820281Y-87416955D01*
X166844021Y-87452484D01*
X166997516Y-87605979D01*
X167178007Y-87726580D01*
X167378558Y-87809651D01*
X167591462Y-87852000D01*
X167808538Y-87852000D01*
X168021442Y-87809651D01*
X168221993Y-87726580D01*
X168402484Y-87605979D01*
X168555979Y-87452484D01*
X168676580Y-87271993D01*
X168759651Y-87071442D01*
X168802000Y-86858538D01*
X168802000Y-86641462D01*
X168759651Y-86428558D01*
X168676580Y-86228007D01*
X168555979Y-86047516D01*
X168402484Y-85894021D01*
X168221993Y-85773420D01*
X168021442Y-85690349D01*
X167808538Y-85648000D01*
X167591462Y-85648000D01*
X167378558Y-85690349D01*
X167178007Y-85773420D01*
X166997516Y-85894021D01*
X166844021Y-86047516D01*
X166820281Y-86083045D01*
X166745344Y-85960463D01*
X166571227Y-85771697D01*
X166363629Y-85620527D01*
X166130528Y-85512762D01*
X166029400Y-85482090D01*
X165827002Y-85605775D01*
X165827002Y-85447000D01*
X172256676Y-85447000D01*
X172818163Y-85502055D01*
X173335838Y-85658349D01*
X173813291Y-85912216D01*
X174232337Y-86253982D01*
X174577025Y-86670638D01*
X174834217Y-87146303D01*
X174994122Y-87662872D01*
X175053001Y-88223071D01*
X175053000Y-92493000D01*
X173006577Y-92493000D01*
X172982381Y-92495383D01*
X172968094Y-92495383D01*
X172961470Y-92496080D01*
X172748125Y-92520011D01*
X172705819Y-92529003D01*
X172663430Y-92537396D01*
X172657071Y-92539365D01*
X172657065Y-92539366D01*
X172657059Y-92539368D01*
X172452434Y-92604279D01*
X172412682Y-92621316D01*
X172372727Y-92637784D01*
X172366868Y-92640952D01*
X172178740Y-92744376D01*
X172143049Y-92768814D01*
X172107058Y-92792726D01*
X172101933Y-92796966D01*
X172101926Y-92796971D01*
X172101921Y-92796977D01*
X171937470Y-92934967D01*
X171907200Y-92965877D01*
X171876545Y-92996318D01*
X171872341Y-93001474D01*
X171872335Y-93001480D01*
X171872331Y-93001487D01*
X171737815Y-93168790D01*
X171714132Y-93204981D01*
X171689966Y-93240808D01*
X171686839Y-93246689D01*
X171587378Y-93436942D01*
X171571179Y-93477035D01*
X171554430Y-93516879D01*
X171552505Y-93523255D01*
X171491891Y-93729204D01*
X171483783Y-93771709D01*
X171475097Y-93814021D01*
X171474447Y-93820649D01*
X171454990Y-94034448D01*
X171455292Y-94077712D01*
X171454990Y-94120910D01*
X171455640Y-94127538D01*
X171478080Y-94341045D01*
X171486772Y-94383388D01*
X171494874Y-94425865D01*
X171496798Y-94432234D01*
X171496799Y-94432238D01*
X171496800Y-94432240D01*
X171560284Y-94637321D01*
X171577025Y-94677148D01*
X171593231Y-94717259D01*
X171596357Y-94723136D01*
X171596359Y-94723141D01*
X171596362Y-94723145D01*
X171698466Y-94911984D01*
X171722633Y-94947813D01*
X171746313Y-94984001D01*
X171750523Y-94989162D01*
X171887366Y-95154578D01*
X171918086Y-95185085D01*
X171948293Y-95215932D01*
X171953413Y-95220167D01*
X171953422Y-95220176D01*
X171953432Y-95220182D01*
X172119792Y-95355862D01*
X172155826Y-95379803D01*
X172191472Y-95404211D01*
X172197330Y-95407379D01*
X172386884Y-95508167D01*
X172426861Y-95524644D01*
X172466592Y-95541673D01*
X172472951Y-95543641D01*
X172472957Y-95543643D01*
X172678474Y-95605692D01*
X172720865Y-95614086D01*
X172763172Y-95623079D01*
X172769794Y-95623775D01*
X172769796Y-95623775D01*
X172983454Y-95644724D01*
X172983469Y-95644724D01*
X173006577Y-95647000D01*
X175053001Y-95647000D01*
X175053000Y-99896675D01*
X174997945Y-100458168D01*
X174841651Y-100975839D01*
X174587786Y-101453288D01*
X174246018Y-101872338D01*
X173829364Y-102217024D01*
X173353697Y-102474217D01*
X172837128Y-102634122D01*
X172276938Y-102693000D01*
X168706824Y-102693000D01*
X168739494Y-102675537D01*
X168836185Y-102596185D01*
X168915537Y-102499494D01*
X168974502Y-102389180D01*
X169010812Y-102269482D01*
X169023072Y-102145000D01*
X169020000Y-101755750D01*
X168861250Y-101597000D01*
X167837000Y-101597000D01*
X167837000Y-101617000D01*
X167583000Y-101617000D01*
X167583000Y-101597000D01*
X167563000Y-101597000D01*
X167563000Y-101343000D01*
X167583000Y-101343000D01*
X167583000Y-100318750D01*
X167837000Y-100318750D01*
X167837000Y-101343000D01*
X168861250Y-101343000D01*
X169020000Y-101184250D01*
X169023072Y-100795000D01*
X169010812Y-100670518D01*
X168974502Y-100550820D01*
X168915537Y-100440506D01*
X168836185Y-100343815D01*
X168739494Y-100264463D01*
X168629180Y-100205498D01*
X168509482Y-100169188D01*
X168385000Y-100156928D01*
X167995750Y-100160000D01*
X167837000Y-100318750D01*
X167583000Y-100318750D01*
X167424250Y-100160000D01*
X167035000Y-100156928D01*
X166910518Y-100169188D01*
X166790820Y-100205498D01*
X166680506Y-100264463D01*
X166583815Y-100343815D01*
X166504463Y-100440506D01*
X166445498Y-100550820D01*
X166423104Y-100624641D01*
X166412484Y-100614021D01*
X166231993Y-100493420D01*
X166031442Y-100410349D01*
X165818538Y-100368000D01*
X165601462Y-100368000D01*
X165388558Y-100410349D01*
X165188007Y-100493420D01*
X165007516Y-100614021D01*
X164854021Y-100767516D01*
X164733420Y-100948007D01*
X164650349Y-101148558D01*
X164608000Y-101361462D01*
X164608000Y-101578538D01*
X164650349Y-101791442D01*
X164733420Y-101991993D01*
X164854021Y-102172484D01*
X165007516Y-102325979D01*
X165188007Y-102446580D01*
X165388558Y-102529651D01*
X165601462Y-102572000D01*
X165818538Y-102572000D01*
X166031442Y-102529651D01*
X166231993Y-102446580D01*
X166412484Y-102325979D01*
X166423104Y-102315359D01*
X166445498Y-102389180D01*
X166504463Y-102499494D01*
X166583815Y-102596185D01*
X166680506Y-102675537D01*
X166713176Y-102693000D01*
X158606824Y-102693000D01*
X158639494Y-102675537D01*
X158736185Y-102596185D01*
X158815537Y-102499494D01*
X158874502Y-102389180D01*
X158910812Y-102269482D01*
X158923072Y-102145000D01*
X158920000Y-101755750D01*
X158761250Y-101597000D01*
X157737000Y-101597000D01*
X157737000Y-101617000D01*
X157483000Y-101617000D01*
X157483000Y-101597000D01*
X157463000Y-101597000D01*
X157463000Y-101343000D01*
X157483000Y-101343000D01*
X157483000Y-100318750D01*
X157737000Y-100318750D01*
X157737000Y-101343000D01*
X158761250Y-101343000D01*
X158920000Y-101184250D01*
X158923072Y-100795000D01*
X158910812Y-100670518D01*
X158874502Y-100550820D01*
X158815537Y-100440506D01*
X158736185Y-100343815D01*
X158639494Y-100264463D01*
X158529180Y-100205498D01*
X158409482Y-100169188D01*
X158285000Y-100156928D01*
X157895750Y-100160000D01*
X157737000Y-100318750D01*
X157483000Y-100318750D01*
X157324250Y-100160000D01*
X156935000Y-100156928D01*
X156810518Y-100169188D01*
X156690820Y-100205498D01*
X156580506Y-100264463D01*
X156483815Y-100343815D01*
X156404463Y-100440506D01*
X156345498Y-100550820D01*
X156323104Y-100624641D01*
X156312484Y-100614021D01*
X156131993Y-100493420D01*
X155931442Y-100410349D01*
X155718538Y-100368000D01*
X155501462Y-100368000D01*
X155288558Y-100410349D01*
X155088007Y-100493420D01*
X154907516Y-100614021D01*
X154754021Y-100767516D01*
X154633420Y-100948007D01*
X154550349Y-101148558D01*
X154508000Y-101361462D01*
X154508000Y-101578538D01*
X154550349Y-101791442D01*
X154633420Y-101991993D01*
X154754021Y-102172484D01*
X154907516Y-102325979D01*
X155088007Y-102446580D01*
X155288558Y-102529651D01*
X155501462Y-102572000D01*
X155718538Y-102572000D01*
X155931442Y-102529651D01*
X156131993Y-102446580D01*
X156312484Y-102325979D01*
X156323104Y-102315359D01*
X156345498Y-102389180D01*
X156404463Y-102499494D01*
X156483815Y-102596185D01*
X156580506Y-102675537D01*
X156613176Y-102693000D01*
X148506824Y-102693000D01*
X148539494Y-102675537D01*
X148636185Y-102596185D01*
X148715537Y-102499494D01*
X148774502Y-102389180D01*
X148810812Y-102269482D01*
X148823072Y-102145000D01*
X148820000Y-101755750D01*
X148661250Y-101597000D01*
X147637000Y-101597000D01*
X147637000Y-101617000D01*
X147383000Y-101617000D01*
X147383000Y-101597000D01*
X147363000Y-101597000D01*
X147363000Y-101343000D01*
X147383000Y-101343000D01*
X147383000Y-100318750D01*
X147637000Y-100318750D01*
X147637000Y-101343000D01*
X148661250Y-101343000D01*
X148820000Y-101184250D01*
X148823072Y-100795000D01*
X148810812Y-100670518D01*
X148774502Y-100550820D01*
X148715537Y-100440506D01*
X148636185Y-100343815D01*
X148539494Y-100264463D01*
X148429180Y-100205498D01*
X148309482Y-100169188D01*
X148185000Y-100156928D01*
X147795750Y-100160000D01*
X147637000Y-100318750D01*
X147383000Y-100318750D01*
X147224250Y-100160000D01*
X146835000Y-100156928D01*
X146710518Y-100169188D01*
X146590820Y-100205498D01*
X146480506Y-100264463D01*
X146383815Y-100343815D01*
X146304463Y-100440506D01*
X146245498Y-100550820D01*
X146223104Y-100624641D01*
X146212484Y-100614021D01*
X146141200Y-100566390D01*
X146141200Y-95621450D01*
X147114399Y-94648252D01*
X147138485Y-94628485D01*
X147217363Y-94532373D01*
X147275974Y-94422718D01*
X147312067Y-94303737D01*
X147321200Y-94211008D01*
X147321200Y-94211001D01*
X147324253Y-94180001D01*
X147321200Y-94149001D01*
X147321200Y-93571000D01*
X147324253Y-93540000D01*
X147321200Y-93509000D01*
X147321200Y-93508992D01*
X147312067Y-93416263D01*
X147275974Y-93297282D01*
X147217363Y-93187627D01*
X147138485Y-93091515D01*
X147114393Y-93071743D01*
X146973648Y-92930998D01*
X146969062Y-92907942D01*
X146914259Y-92775636D01*
X146834698Y-92656564D01*
X146733436Y-92555302D01*
X146614364Y-92475741D01*
X146482058Y-92420938D01*
X146341603Y-92393000D01*
X146198397Y-92393000D01*
X146057942Y-92420938D01*
X145925636Y-92475741D01*
X145806564Y-92555302D01*
X145705302Y-92656564D01*
X145625741Y-92775636D01*
X145570938Y-92907942D01*
X145543000Y-93048397D01*
X145543000Y-93191603D01*
X145570938Y-93332058D01*
X145625741Y-93464364D01*
X145705302Y-93583436D01*
X145806564Y-93684698D01*
X145925636Y-93764259D01*
X146057942Y-93819062D01*
X146058800Y-93819233D01*
X146058800Y-93918549D01*
X145085602Y-94891748D01*
X145061516Y-94911515D01*
X145041749Y-94935601D01*
X144982637Y-95007628D01*
X144924027Y-95117282D01*
X144887933Y-95236264D01*
X144875747Y-95360000D01*
X144878801Y-95391010D01*
X144878800Y-100566390D01*
X144807516Y-100614021D01*
X144654021Y-100767516D01*
X144533420Y-100948007D01*
X144450349Y-101148558D01*
X144408000Y-101361462D01*
X144408000Y-101578538D01*
X144450349Y-101791442D01*
X144533420Y-101991993D01*
X144654021Y-102172484D01*
X144807516Y-102325979D01*
X144988007Y-102446580D01*
X145188558Y-102529651D01*
X145401462Y-102572000D01*
X145618538Y-102572000D01*
X145831442Y-102529651D01*
X146031993Y-102446580D01*
X146212484Y-102325979D01*
X146223104Y-102315359D01*
X146245498Y-102389180D01*
X146304463Y-102499494D01*
X146383815Y-102596185D01*
X146480506Y-102675537D01*
X146513176Y-102693000D01*
X138406824Y-102693000D01*
X138439494Y-102675537D01*
X138536185Y-102596185D01*
X138615537Y-102499494D01*
X138674502Y-102389180D01*
X138710812Y-102269482D01*
X138723072Y-102145000D01*
X138720000Y-101755750D01*
X138561250Y-101597000D01*
X137537000Y-101597000D01*
X137537000Y-101617000D01*
X137283000Y-101617000D01*
X137283000Y-101597000D01*
X137263000Y-101597000D01*
X137263000Y-101343000D01*
X137283000Y-101343000D01*
X137283000Y-100318750D01*
X137537000Y-100318750D01*
X137537000Y-101343000D01*
X138561250Y-101343000D01*
X138720000Y-101184250D01*
X138723072Y-100795000D01*
X138710812Y-100670518D01*
X138674502Y-100550820D01*
X138615537Y-100440506D01*
X138536185Y-100343815D01*
X138439494Y-100264463D01*
X138329180Y-100205498D01*
X138209482Y-100169188D01*
X138085000Y-100156928D01*
X137695750Y-100160000D01*
X137537000Y-100318750D01*
X137283000Y-100318750D01*
X137124250Y-100160000D01*
X136735000Y-100156928D01*
X136610518Y-100169188D01*
X136490820Y-100205498D01*
X136380506Y-100264463D01*
X136283815Y-100343815D01*
X136204463Y-100440506D01*
X136145498Y-100550820D01*
X136123104Y-100624641D01*
X136112484Y-100614021D01*
X135931993Y-100493420D01*
X135731442Y-100410349D01*
X135518538Y-100368000D01*
X135301462Y-100368000D01*
X135088558Y-100410349D01*
X134888007Y-100493420D01*
X134707516Y-100614021D01*
X134554021Y-100767516D01*
X134433420Y-100948007D01*
X134350349Y-101148558D01*
X134308000Y-101361462D01*
X134308000Y-101578538D01*
X134350349Y-101791442D01*
X134433420Y-101991993D01*
X134554021Y-102172484D01*
X134707516Y-102325979D01*
X134888007Y-102446580D01*
X135088558Y-102529651D01*
X135301462Y-102572000D01*
X135518538Y-102572000D01*
X135731442Y-102529651D01*
X135931993Y-102446580D01*
X136112484Y-102325979D01*
X136123104Y-102315359D01*
X136145498Y-102389180D01*
X136204463Y-102499494D01*
X136283815Y-102596185D01*
X136380506Y-102675537D01*
X136413176Y-102693000D01*
X128306824Y-102693000D01*
X128339494Y-102675537D01*
X128436185Y-102596185D01*
X128515537Y-102499494D01*
X128574502Y-102389180D01*
X128610812Y-102269482D01*
X128623072Y-102145000D01*
X128620000Y-101755750D01*
X128461250Y-101597000D01*
X127437000Y-101597000D01*
X127437000Y-101617000D01*
X127183000Y-101617000D01*
X127183000Y-101597000D01*
X127163000Y-101597000D01*
X127163000Y-101343000D01*
X127183000Y-101343000D01*
X127183000Y-100318750D01*
X127437000Y-100318750D01*
X127437000Y-101343000D01*
X128461250Y-101343000D01*
X128620000Y-101184250D01*
X128623072Y-100795000D01*
X128610812Y-100670518D01*
X128574502Y-100550820D01*
X128515537Y-100440506D01*
X128436185Y-100343815D01*
X128339494Y-100264463D01*
X128229180Y-100205498D01*
X128109482Y-100169188D01*
X127985000Y-100156928D01*
X127595750Y-100160000D01*
X127437000Y-100318750D01*
X127183000Y-100318750D01*
X127024250Y-100160000D01*
X126635000Y-100156928D01*
X126510518Y-100169188D01*
X126390820Y-100205498D01*
X126280506Y-100264463D01*
X126183815Y-100343815D01*
X126104463Y-100440506D01*
X126045498Y-100550820D01*
X126023104Y-100624641D01*
X126012484Y-100614021D01*
X125831993Y-100493420D01*
X125631442Y-100410349D01*
X125418538Y-100368000D01*
X125201462Y-100368000D01*
X124988558Y-100410349D01*
X124788007Y-100493420D01*
X124607516Y-100614021D01*
X124454021Y-100767516D01*
X124333420Y-100948007D01*
X124250349Y-101148558D01*
X124208000Y-101361462D01*
X124208000Y-101578538D01*
X124250349Y-101791442D01*
X124333420Y-101991993D01*
X124454021Y-102172484D01*
X124607516Y-102325979D01*
X124788007Y-102446580D01*
X124988558Y-102529651D01*
X125201462Y-102572000D01*
X125418538Y-102572000D01*
X125631442Y-102529651D01*
X125831993Y-102446580D01*
X126012484Y-102325979D01*
X126023104Y-102315359D01*
X126045498Y-102389180D01*
X126104463Y-102499494D01*
X126183815Y-102596185D01*
X126280506Y-102675537D01*
X126313176Y-102693000D01*
X118206824Y-102693000D01*
X118239494Y-102675537D01*
X118336185Y-102596185D01*
X118415537Y-102499494D01*
X118474502Y-102389180D01*
X118510812Y-102269482D01*
X118523072Y-102145000D01*
X118520000Y-101755750D01*
X118361250Y-101597000D01*
X117337000Y-101597000D01*
X117337000Y-101617000D01*
X117083000Y-101617000D01*
X117083000Y-101597000D01*
X117063000Y-101597000D01*
X117063000Y-101343000D01*
X117083000Y-101343000D01*
X117083000Y-100318750D01*
X117337000Y-100318750D01*
X117337000Y-101343000D01*
X118361250Y-101343000D01*
X118520000Y-101184250D01*
X118523072Y-100795000D01*
X118510812Y-100670518D01*
X118474502Y-100550820D01*
X118415537Y-100440506D01*
X118336185Y-100343815D01*
X118239494Y-100264463D01*
X118129180Y-100205498D01*
X118009482Y-100169188D01*
X117885000Y-100156928D01*
X117495750Y-100160000D01*
X117337000Y-100318750D01*
X117083000Y-100318750D01*
X116924250Y-100160000D01*
X116535000Y-100156928D01*
X116410518Y-100169188D01*
X116290820Y-100205498D01*
X116180506Y-100264463D01*
X116083815Y-100343815D01*
X116004463Y-100440506D01*
X115945498Y-100550820D01*
X115923104Y-100624641D01*
X115912484Y-100614021D01*
X115731993Y-100493420D01*
X115531442Y-100410349D01*
X115318538Y-100368000D01*
X115101462Y-100368000D01*
X114888558Y-100410349D01*
X114688007Y-100493420D01*
X114507516Y-100614021D01*
X114354021Y-100767516D01*
X114233420Y-100948007D01*
X114150349Y-101148558D01*
X114108000Y-101361462D01*
X114108000Y-101578538D01*
X114150349Y-101791442D01*
X114233420Y-101991993D01*
X114354021Y-102172484D01*
X114507516Y-102325979D01*
X114688007Y-102446580D01*
X114888558Y-102529651D01*
X115101462Y-102572000D01*
X115318538Y-102572000D01*
X115531442Y-102529651D01*
X115731993Y-102446580D01*
X115912484Y-102325979D01*
X115923104Y-102315359D01*
X115945498Y-102389180D01*
X116004463Y-102499494D01*
X116083815Y-102596185D01*
X116180506Y-102675537D01*
X116213176Y-102693000D01*
X108803324Y-102693000D01*
X108241832Y-102637945D01*
X107724161Y-102481651D01*
X107246712Y-102227786D01*
X106827662Y-101886018D01*
X106482976Y-101469364D01*
X106225783Y-100993697D01*
X106065878Y-100477128D01*
X106007000Y-99916938D01*
X106007000Y-95748397D01*
X125343000Y-95748397D01*
X125343000Y-95891603D01*
X125370938Y-96032058D01*
X125425741Y-96164364D01*
X125505302Y-96283436D01*
X125606564Y-96384698D01*
X125725636Y-96464259D01*
X125857942Y-96519062D01*
X125998397Y-96547000D01*
X126141603Y-96547000D01*
X126282058Y-96519062D01*
X126414364Y-96464259D01*
X126533436Y-96384698D01*
X126634698Y-96283436D01*
X126714259Y-96164364D01*
X126769062Y-96032058D01*
X126773648Y-96009002D01*
X128800572Y-93982079D01*
X139637319Y-93982079D01*
X139637319Y-94157921D01*
X139671625Y-94330385D01*
X139738917Y-94492843D01*
X139836610Y-94639051D01*
X139960949Y-94763390D01*
X140107157Y-94861083D01*
X140269615Y-94928375D01*
X140442079Y-94962681D01*
X140617921Y-94962681D01*
X140790385Y-94928375D01*
X140952843Y-94861083D01*
X141099051Y-94763390D01*
X141223390Y-94639051D01*
X141321083Y-94492843D01*
X141388375Y-94330385D01*
X141422681Y-94157921D01*
X141422681Y-93982079D01*
X141388375Y-93809615D01*
X141321083Y-93647157D01*
X141223390Y-93500949D01*
X141099051Y-93376610D01*
X140952843Y-93278917D01*
X140790385Y-93211625D01*
X140617921Y-93177319D01*
X140442079Y-93177319D01*
X140269615Y-93211625D01*
X140107157Y-93278917D01*
X139960949Y-93376610D01*
X139836610Y-93500949D01*
X139738917Y-93647157D01*
X139671625Y-93809615D01*
X139637319Y-93982079D01*
X128800572Y-93982079D01*
X130061452Y-92721200D01*
X144606092Y-92721200D01*
X144625636Y-92734259D01*
X144757942Y-92789062D01*
X144898397Y-92817000D01*
X145041603Y-92817000D01*
X145182058Y-92789062D01*
X145314364Y-92734259D01*
X145433436Y-92654698D01*
X145534698Y-92553436D01*
X145614259Y-92434364D01*
X145669062Y-92302058D01*
X145697000Y-92161603D01*
X145697000Y-92018397D01*
X145669062Y-91877942D01*
X145614259Y-91745636D01*
X145534698Y-91626564D01*
X145433436Y-91525302D01*
X145314364Y-91445741D01*
X145182058Y-91390938D01*
X145041603Y-91363000D01*
X144898397Y-91363000D01*
X144757942Y-91390938D01*
X144625636Y-91445741D01*
X144606092Y-91458800D01*
X129831000Y-91458800D01*
X129800000Y-91455747D01*
X129769000Y-91458800D01*
X129768992Y-91458800D01*
X129676263Y-91467933D01*
X129557281Y-91504026D01*
X129447627Y-91562637D01*
X129375600Y-91621748D01*
X129375596Y-91621752D01*
X129351515Y-91641515D01*
X129331752Y-91665596D01*
X125880998Y-95116352D01*
X125857942Y-95120938D01*
X125725636Y-95175741D01*
X125606564Y-95255302D01*
X125505302Y-95356564D01*
X125425741Y-95475636D01*
X125370938Y-95607942D01*
X125343000Y-95748397D01*
X106007000Y-95748397D01*
X106007000Y-95647000D01*
X108053423Y-95647000D01*
X108077619Y-95644617D01*
X108091906Y-95644617D01*
X108098530Y-95643920D01*
X108311875Y-95619989D01*
X108354181Y-95610997D01*
X108396570Y-95602604D01*
X108402929Y-95600635D01*
X108402935Y-95600634D01*
X108402941Y-95600632D01*
X108607566Y-95535721D01*
X108647304Y-95518689D01*
X108687274Y-95502216D01*
X108693132Y-95499048D01*
X108881260Y-95395623D01*
X108916925Y-95371203D01*
X108952942Y-95347274D01*
X108958067Y-95343034D01*
X108958074Y-95343029D01*
X108958079Y-95343023D01*
X109122530Y-95205033D01*
X109152784Y-95174139D01*
X109183455Y-95143682D01*
X109187659Y-95138526D01*
X109187665Y-95138520D01*
X109187669Y-95138513D01*
X109322185Y-94971211D01*
X109345862Y-94935028D01*
X109370035Y-94899192D01*
X109373161Y-94893311D01*
X109472622Y-94703058D01*
X109488826Y-94662951D01*
X109505570Y-94623120D01*
X109507495Y-94616744D01*
X109568109Y-94410796D01*
X109576217Y-94368291D01*
X109584903Y-94325979D01*
X109585553Y-94319350D01*
X109605010Y-94105552D01*
X109604708Y-94062288D01*
X109605010Y-94019090D01*
X109604360Y-94012462D01*
X109581920Y-93798955D01*
X109573228Y-93756612D01*
X109565126Y-93714135D01*
X109563200Y-93707759D01*
X109499716Y-93502679D01*
X109482963Y-93462823D01*
X109466769Y-93422741D01*
X109463645Y-93416868D01*
X109463641Y-93416858D01*
X109463636Y-93416850D01*
X109361533Y-93228015D01*
X109337373Y-93192196D01*
X109313687Y-93155999D01*
X109309477Y-93150838D01*
X109172634Y-92985422D01*
X109141947Y-92954948D01*
X109111707Y-92924068D01*
X109106581Y-92919828D01*
X109106577Y-92919824D01*
X109106573Y-92919821D01*
X108940208Y-92784138D01*
X108904223Y-92760230D01*
X108868528Y-92735788D01*
X108862672Y-92732622D01*
X108862664Y-92732618D01*
X108673116Y-92631833D01*
X108633111Y-92615344D01*
X108593408Y-92598327D01*
X108587056Y-92596361D01*
X108587046Y-92596357D01*
X108587036Y-92596355D01*
X108381526Y-92534308D01*
X108339135Y-92525914D01*
X108296828Y-92516921D01*
X108290205Y-92516225D01*
X108076546Y-92495276D01*
X108076531Y-92495276D01*
X108053423Y-92493000D01*
X106007000Y-92493000D01*
X106007000Y-88243324D01*
X106062055Y-87681837D01*
X106139598Y-87425000D01*
X111886928Y-87425000D01*
X111899188Y-87549482D01*
X111935498Y-87669180D01*
X111994463Y-87779494D01*
X112073815Y-87876185D01*
X112170506Y-87955537D01*
X112280820Y-88014502D01*
X112400518Y-88050812D01*
X112525000Y-88063072D01*
X112914250Y-88060000D01*
X113073000Y-87901250D01*
X113073000Y-86877000D01*
X113327000Y-86877000D01*
X113327000Y-87901250D01*
X113485750Y-88060000D01*
X113875000Y-88063072D01*
X113999482Y-88050812D01*
X114119180Y-88014502D01*
X114229494Y-87955537D01*
X114326185Y-87876185D01*
X114403119Y-87782441D01*
X114536371Y-87879473D01*
X114769472Y-87987238D01*
X114870600Y-88017910D01*
X115073000Y-87894224D01*
X115073000Y-86877000D01*
X113327000Y-86877000D01*
X113073000Y-86877000D01*
X112048750Y-86877000D01*
X111890000Y-87035750D01*
X111886928Y-87425000D01*
X106139598Y-87425000D01*
X106218349Y-87164162D01*
X106472216Y-86686709D01*
X106813982Y-86267663D01*
X107230638Y-85922975D01*
X107706303Y-85665783D01*
X108222872Y-85505878D01*
X108783062Y-85447000D01*
X112422734Y-85447000D01*
X112400518Y-85449188D01*
G37*
X112400518Y-85449188D02*
X112280820Y-85485498D01*
X112170506Y-85544463D01*
X112073815Y-85623815D01*
X111994463Y-85720506D01*
X111935498Y-85830820D01*
X111899188Y-85950518D01*
X111886928Y-86075000D01*
X111890000Y-86464250D01*
X112048750Y-86623000D01*
X113073000Y-86623000D01*
X113073000Y-86603000D01*
X113327000Y-86603000D01*
X113327000Y-86623000D01*
X115073000Y-86623000D01*
X115073000Y-86603000D01*
X115327000Y-86603000D01*
X115327000Y-86623000D01*
X115347000Y-86623000D01*
X115347000Y-86877000D01*
X115327000Y-86877000D01*
X115327000Y-87894224D01*
X115529400Y-88017910D01*
X115630528Y-87987238D01*
X115863629Y-87879473D01*
X116071227Y-87728303D01*
X116245344Y-87539537D01*
X116320281Y-87416955D01*
X116344021Y-87452484D01*
X116497516Y-87605979D01*
X116678007Y-87726580D01*
X116878558Y-87809651D01*
X117091462Y-87852000D01*
X117308538Y-87852000D01*
X117521442Y-87809651D01*
X117721993Y-87726580D01*
X117902484Y-87605979D01*
X118055979Y-87452484D01*
X118074343Y-87425000D01*
X121986928Y-87425000D01*
X121999188Y-87549482D01*
X122035498Y-87669180D01*
X122094463Y-87779494D01*
X122173815Y-87876185D01*
X122270506Y-87955537D01*
X122380820Y-88014502D01*
X122500518Y-88050812D01*
X122625000Y-88063072D01*
X123014250Y-88060000D01*
X123173000Y-87901250D01*
X123173000Y-86877000D01*
X123427000Y-86877000D01*
X123427000Y-87901250D01*
X123585750Y-88060000D01*
X123975000Y-88063072D01*
X124099482Y-88050812D01*
X124219180Y-88014502D01*
X124329494Y-87955537D01*
X124426185Y-87876185D01*
X124503119Y-87782441D01*
X124636371Y-87879473D01*
X124869472Y-87987238D01*
X124970600Y-88017910D01*
X125173000Y-87894224D01*
X125173000Y-86877000D01*
X123427000Y-86877000D01*
X123173000Y-86877000D01*
X122148750Y-86877000D01*
X121990000Y-87035750D01*
X121986928Y-87425000D01*
X118074343Y-87425000D01*
X118176580Y-87271993D01*
X118259651Y-87071442D01*
X118302000Y-86858538D01*
X118302000Y-86641462D01*
X118259651Y-86428558D01*
X118176580Y-86228007D01*
X118055979Y-86047516D01*
X117902484Y-85894021D01*
X117721993Y-85773420D01*
X117521442Y-85690349D01*
X117308538Y-85648000D01*
X117091462Y-85648000D01*
X116878558Y-85690349D01*
X116678007Y-85773420D01*
X116497516Y-85894021D01*
X116344021Y-86047516D01*
X116320281Y-86083045D01*
X116245344Y-85960463D01*
X116071227Y-85771697D01*
X115863629Y-85620527D01*
X115630528Y-85512762D01*
X115529400Y-85482090D01*
X115327002Y-85605775D01*
X115327002Y-85447000D01*
X122522734Y-85447000D01*
X122500518Y-85449188D01*
X122380820Y-85485498D01*
X122270506Y-85544463D01*
X122173815Y-85623815D01*
X122094463Y-85720506D01*
X122035498Y-85830820D01*
X121999188Y-85950518D01*
X121986928Y-86075000D01*
X121990000Y-86464250D01*
X122148750Y-86623000D01*
X123173000Y-86623000D01*
X123173000Y-86603000D01*
X123427000Y-86603000D01*
X123427000Y-86623000D01*
X125173000Y-86623000D01*
X125173000Y-86603000D01*
X125427000Y-86603000D01*
X125427000Y-86623000D01*
X125447000Y-86623000D01*
X125447000Y-86877000D01*
X125427000Y-86877000D01*
X125427000Y-87894224D01*
X125629400Y-88017910D01*
X125730528Y-87987238D01*
X125963629Y-87879473D01*
X126171227Y-87728303D01*
X126345344Y-87539537D01*
X126420281Y-87416955D01*
X126444021Y-87452484D01*
X126597516Y-87605979D01*
X126778007Y-87726580D01*
X126978558Y-87809651D01*
X127191462Y-87852000D01*
X127408538Y-87852000D01*
X127621442Y-87809651D01*
X127821993Y-87726580D01*
X128002484Y-87605979D01*
X128155979Y-87452484D01*
X128174343Y-87425000D01*
X132086928Y-87425000D01*
X132099188Y-87549482D01*
X132135498Y-87669180D01*
X132194463Y-87779494D01*
X132273815Y-87876185D01*
X132370506Y-87955537D01*
X132480820Y-88014502D01*
X132600518Y-88050812D01*
X132725000Y-88063072D01*
X133114250Y-88060000D01*
X133273000Y-87901250D01*
X133273000Y-86877000D01*
X133527000Y-86877000D01*
X133527000Y-87901250D01*
X133685750Y-88060000D01*
X134075000Y-88063072D01*
X134199482Y-88050812D01*
X134319180Y-88014502D01*
X134429494Y-87955537D01*
X134526185Y-87876185D01*
X134603119Y-87782441D01*
X134736371Y-87879473D01*
X134969472Y-87987238D01*
X135070600Y-88017910D01*
X135273000Y-87894224D01*
X135273000Y-86877000D01*
X133527000Y-86877000D01*
X133273000Y-86877000D01*
X132248750Y-86877000D01*
X132090000Y-87035750D01*
X132086928Y-87425000D01*
X128174343Y-87425000D01*
X128276580Y-87271993D01*
X128359651Y-87071442D01*
X128402000Y-86858538D01*
X128402000Y-86641462D01*
X128359651Y-86428558D01*
X128276580Y-86228007D01*
X128155979Y-86047516D01*
X128002484Y-85894021D01*
X127821993Y-85773420D01*
X127621442Y-85690349D01*
X127408538Y-85648000D01*
X127191462Y-85648000D01*
X126978558Y-85690349D01*
X126778007Y-85773420D01*
X126597516Y-85894021D01*
X126444021Y-86047516D01*
X126420281Y-86083045D01*
X126345344Y-85960463D01*
X126171227Y-85771697D01*
X125963629Y-85620527D01*
X125730528Y-85512762D01*
X125629400Y-85482090D01*
X125427002Y-85605775D01*
X125427002Y-85447000D01*
X132622734Y-85447000D01*
X132600518Y-85449188D01*
X132480820Y-85485498D01*
X132370506Y-85544463D01*
X132273815Y-85623815D01*
X132194463Y-85720506D01*
X132135498Y-85830820D01*
X132099188Y-85950518D01*
X132086928Y-86075000D01*
X132090000Y-86464250D01*
X132248750Y-86623000D01*
X133273000Y-86623000D01*
X133273000Y-86603000D01*
X133527000Y-86603000D01*
X133527000Y-86623000D01*
X135273000Y-86623000D01*
X135273000Y-86603000D01*
X135527000Y-86603000D01*
X135527000Y-86623000D01*
X135547000Y-86623000D01*
X135547000Y-86877000D01*
X135527000Y-86877000D01*
X135527000Y-87894224D01*
X135729400Y-88017910D01*
X135830528Y-87987238D01*
X136063629Y-87879473D01*
X136271227Y-87728303D01*
X136445344Y-87539537D01*
X136520281Y-87416955D01*
X136544021Y-87452484D01*
X136697516Y-87605979D01*
X136878007Y-87726580D01*
X137078558Y-87809651D01*
X137291462Y-87852000D01*
X137508538Y-87852000D01*
X137721442Y-87809651D01*
X137921993Y-87726580D01*
X138102484Y-87605979D01*
X138255979Y-87452484D01*
X138274343Y-87425000D01*
X142186928Y-87425000D01*
X142199188Y-87549482D01*
X142235498Y-87669180D01*
X142294463Y-87779494D01*
X142373815Y-87876185D01*
X142470506Y-87955537D01*
X142580820Y-88014502D01*
X142700518Y-88050812D01*
X142825000Y-88063072D01*
X143214250Y-88060000D01*
X143373000Y-87901250D01*
X143373000Y-86877000D01*
X143627000Y-86877000D01*
X143627000Y-87901250D01*
X143785750Y-88060000D01*
X144175000Y-88063072D01*
X144299482Y-88050812D01*
X144419180Y-88014502D01*
X144529494Y-87955537D01*
X144626185Y-87876185D01*
X144703119Y-87782441D01*
X144836371Y-87879473D01*
X145069472Y-87987238D01*
X145170600Y-88017910D01*
X145373000Y-87894224D01*
X145373000Y-86877000D01*
X143627000Y-86877000D01*
X143373000Y-86877000D01*
X142348750Y-86877000D01*
X142190000Y-87035750D01*
X142186928Y-87425000D01*
X138274343Y-87425000D01*
X138376580Y-87271993D01*
X138459651Y-87071442D01*
X138502000Y-86858538D01*
X138502000Y-86641462D01*
X138459651Y-86428558D01*
X138376580Y-86228007D01*
X138255979Y-86047516D01*
X138102484Y-85894021D01*
X137921993Y-85773420D01*
X137721442Y-85690349D01*
X137508538Y-85648000D01*
X137291462Y-85648000D01*
X137078558Y-85690349D01*
X136878007Y-85773420D01*
X136697516Y-85894021D01*
X136544021Y-86047516D01*
X136520281Y-86083045D01*
X136445344Y-85960463D01*
X136271227Y-85771697D01*
X136063629Y-85620527D01*
X135830528Y-85512762D01*
X135729400Y-85482090D01*
X135527002Y-85605775D01*
X135527002Y-85447000D01*
X142722734Y-85447000D01*
X142700518Y-85449188D01*
X142580820Y-85485498D01*
X142470506Y-85544463D01*
X142373815Y-85623815D01*
X142294463Y-85720506D01*
X142235498Y-85830820D01*
X142199188Y-85950518D01*
X142186928Y-86075000D01*
X142190000Y-86464250D01*
X142348750Y-86623000D01*
X143373000Y-86623000D01*
X143373000Y-86603000D01*
X143627000Y-86603000D01*
X143627000Y-86623000D01*
X145373000Y-86623000D01*
X145373000Y-86603000D01*
X145627000Y-86603000D01*
X145627000Y-86623000D01*
X145647000Y-86623000D01*
X145647000Y-86877000D01*
X145627000Y-86877000D01*
X145627000Y-87894224D01*
X145829400Y-88017910D01*
X145930528Y-87987238D01*
X146163629Y-87879473D01*
X146371227Y-87728303D01*
X146545344Y-87539537D01*
X146620281Y-87416955D01*
X146644021Y-87452484D01*
X146797516Y-87605979D01*
X146978007Y-87726580D01*
X147178558Y-87809651D01*
X147391462Y-87852000D01*
X147608538Y-87852000D01*
X147821442Y-87809651D01*
X148021993Y-87726580D01*
X148202484Y-87605979D01*
X148355979Y-87452484D01*
X148374343Y-87425000D01*
X152286928Y-87425000D01*
X152299188Y-87549482D01*
X152335498Y-87669180D01*
X152394463Y-87779494D01*
X152473815Y-87876185D01*
X152570506Y-87955537D01*
X152680820Y-88014502D01*
X152800518Y-88050812D01*
X152925000Y-88063072D01*
X153314250Y-88060000D01*
X153473000Y-87901250D01*
X153473000Y-86877000D01*
X153727000Y-86877000D01*
X153727000Y-87901250D01*
X153885750Y-88060000D01*
X154275000Y-88063072D01*
X154399482Y-88050812D01*
X154519180Y-88014502D01*
X154629494Y-87955537D01*
X154726185Y-87876185D01*
X154803119Y-87782441D01*
X154936371Y-87879473D01*
X155169472Y-87987238D01*
X155270600Y-88017910D01*
X155473000Y-87894224D01*
X155473000Y-86877000D01*
X153727000Y-86877000D01*
X153473000Y-86877000D01*
X152448750Y-86877000D01*
X152290000Y-87035750D01*
X152286928Y-87425000D01*
X148374343Y-87425000D01*
X148476580Y-87271993D01*
X148559651Y-87071442D01*
X148602000Y-86858538D01*
X148602000Y-86641462D01*
X148559651Y-86428558D01*
X148476580Y-86228007D01*
X148355979Y-86047516D01*
X148202484Y-85894021D01*
X148021993Y-85773420D01*
X147821442Y-85690349D01*
X147608538Y-85648000D01*
X147391462Y-85648000D01*
X147178558Y-85690349D01*
X146978007Y-85773420D01*
X146797516Y-85894021D01*
X146644021Y-86047516D01*
X146620281Y-86083045D01*
X146545344Y-85960463D01*
X146371227Y-85771697D01*
X146163629Y-85620527D01*
X145930528Y-85512762D01*
X145829400Y-85482090D01*
X145627002Y-85605775D01*
X145627002Y-85447000D01*
X152822734Y-85447000D01*
X152800518Y-85449188D01*
X152680820Y-85485498D01*
X152570506Y-85544463D01*
X152473815Y-85623815D01*
X152394463Y-85720506D01*
X152335498Y-85830820D01*
X152299188Y-85950518D01*
X152286928Y-86075000D01*
X152290000Y-86464250D01*
X152448750Y-86623000D01*
X153473000Y-86623000D01*
X153473000Y-86603000D01*
X153727000Y-86603000D01*
X153727000Y-86623000D01*
X155473000Y-86623000D01*
X155473000Y-86603000D01*
X155727000Y-86603000D01*
X155727000Y-86623000D01*
X155747000Y-86623000D01*
X155747000Y-86877000D01*
X155727000Y-86877000D01*
X155727000Y-87894224D01*
X155929400Y-88017910D01*
X156030528Y-87987238D01*
X156263629Y-87879473D01*
X156471227Y-87728303D01*
X156645344Y-87539537D01*
X156720281Y-87416955D01*
X156744021Y-87452484D01*
X156897516Y-87605979D01*
X157078007Y-87726580D01*
X157278558Y-87809651D01*
X157491462Y-87852000D01*
X157708538Y-87852000D01*
X157921442Y-87809651D01*
X158121993Y-87726580D01*
X158302484Y-87605979D01*
X158455979Y-87452484D01*
X158474343Y-87425000D01*
X162386928Y-87425000D01*
X162399188Y-87549482D01*
X162435498Y-87669180D01*
X162494463Y-87779494D01*
X162573815Y-87876185D01*
X162670506Y-87955537D01*
X162780820Y-88014502D01*
X162900518Y-88050812D01*
X163025000Y-88063072D01*
X163414250Y-88060000D01*
X163573000Y-87901250D01*
X163573000Y-86877000D01*
X163827000Y-86877000D01*
X163827000Y-87901250D01*
X163985750Y-88060000D01*
X164375000Y-88063072D01*
X164499482Y-88050812D01*
X164619180Y-88014502D01*
X164729494Y-87955537D01*
X164826185Y-87876185D01*
X164903119Y-87782441D01*
X165036371Y-87879473D01*
X165269472Y-87987238D01*
X165370600Y-88017910D01*
X165573000Y-87894224D01*
X165573000Y-86877000D01*
X163827000Y-86877000D01*
X163573000Y-86877000D01*
X162548750Y-86877000D01*
X162390000Y-87035750D01*
X162386928Y-87425000D01*
X158474343Y-87425000D01*
X158576580Y-87271993D01*
X158659651Y-87071442D01*
X158702000Y-86858538D01*
X158702000Y-86641462D01*
X158659651Y-86428558D01*
X158576580Y-86228007D01*
X158455979Y-86047516D01*
X158302484Y-85894021D01*
X158121993Y-85773420D01*
X157921442Y-85690349D01*
X157708538Y-85648000D01*
X157491462Y-85648000D01*
X157278558Y-85690349D01*
X157078007Y-85773420D01*
X156897516Y-85894021D01*
X156744021Y-86047516D01*
X156720281Y-86083045D01*
X156645344Y-85960463D01*
X156471227Y-85771697D01*
X156263629Y-85620527D01*
X156030528Y-85512762D01*
X155929400Y-85482090D01*
X155727002Y-85605775D01*
X155727002Y-85447000D01*
X162922734Y-85447000D01*
X162900518Y-85449188D01*
X162780820Y-85485498D01*
X162670506Y-85544463D01*
X162573815Y-85623815D01*
X162494463Y-85720506D01*
X162435498Y-85830820D01*
X162399188Y-85950518D01*
X162386928Y-86075000D01*
X162390000Y-86464250D01*
X162548750Y-86623000D01*
X163573000Y-86623000D01*
X163573000Y-86603000D01*
X163827000Y-86603000D01*
X163827000Y-86623000D01*
X165573000Y-86623000D01*
X165573000Y-86603000D01*
X165827000Y-86603000D01*
X165827000Y-86623000D01*
X165847000Y-86623000D01*
X165847000Y-86877000D01*
X165827000Y-86877000D01*
X165827000Y-87894224D01*
X166029400Y-88017910D01*
X166130528Y-87987238D01*
X166363629Y-87879473D01*
X166571227Y-87728303D01*
X166745344Y-87539537D01*
X166820281Y-87416955D01*
X166844021Y-87452484D01*
X166997516Y-87605979D01*
X167178007Y-87726580D01*
X167378558Y-87809651D01*
X167591462Y-87852000D01*
X167808538Y-87852000D01*
X168021442Y-87809651D01*
X168221993Y-87726580D01*
X168402484Y-87605979D01*
X168555979Y-87452484D01*
X168676580Y-87271993D01*
X168759651Y-87071442D01*
X168802000Y-86858538D01*
X168802000Y-86641462D01*
X168759651Y-86428558D01*
X168676580Y-86228007D01*
X168555979Y-86047516D01*
X168402484Y-85894021D01*
X168221993Y-85773420D01*
X168021442Y-85690349D01*
X167808538Y-85648000D01*
X167591462Y-85648000D01*
X167378558Y-85690349D01*
X167178007Y-85773420D01*
X166997516Y-85894021D01*
X166844021Y-86047516D01*
X166820281Y-86083045D01*
X166745344Y-85960463D01*
X166571227Y-85771697D01*
X166363629Y-85620527D01*
X166130528Y-85512762D01*
X166029400Y-85482090D01*
X165827002Y-85605775D01*
X165827002Y-85447000D01*
X172256676Y-85447000D01*
X172818163Y-85502055D01*
X173335838Y-85658349D01*
X173813291Y-85912216D01*
X174232337Y-86253982D01*
X174577025Y-86670638D01*
X174834217Y-87146303D01*
X174994122Y-87662872D01*
X175053001Y-88223071D01*
X175053000Y-92493000D01*
X173006577Y-92493000D01*
X172982381Y-92495383D01*
X172968094Y-92495383D01*
X172961470Y-92496080D01*
X172748125Y-92520011D01*
X172705819Y-92529003D01*
X172663430Y-92537396D01*
X172657071Y-92539365D01*
X172657065Y-92539366D01*
X172657059Y-92539368D01*
X172452434Y-92604279D01*
X172412682Y-92621316D01*
X172372727Y-92637784D01*
X172366868Y-92640952D01*
X172178740Y-92744376D01*
X172143049Y-92768814D01*
X172107058Y-92792726D01*
X172101933Y-92796966D01*
X172101926Y-92796971D01*
X172101921Y-92796977D01*
X171937470Y-92934967D01*
X171907200Y-92965877D01*
X171876545Y-92996318D01*
X171872341Y-93001474D01*
X171872335Y-93001480D01*
X171872331Y-93001487D01*
X171737815Y-93168790D01*
X171714132Y-93204981D01*
X171689966Y-93240808D01*
X171686839Y-93246689D01*
X171587378Y-93436942D01*
X171571179Y-93477035D01*
X171554430Y-93516879D01*
X171552505Y-93523255D01*
X171491891Y-93729204D01*
X171483783Y-93771709D01*
X171475097Y-93814021D01*
X171474447Y-93820649D01*
X171454990Y-94034448D01*
X171455292Y-94077712D01*
X171454990Y-94120910D01*
X171455640Y-94127538D01*
X171478080Y-94341045D01*
X171486772Y-94383388D01*
X171494874Y-94425865D01*
X171496798Y-94432234D01*
X171496799Y-94432238D01*
X171496800Y-94432240D01*
X171560284Y-94637321D01*
X171577025Y-94677148D01*
X171593231Y-94717259D01*
X171596357Y-94723136D01*
X171596359Y-94723141D01*
X171596362Y-94723145D01*
X171698466Y-94911984D01*
X171722633Y-94947813D01*
X171746313Y-94984001D01*
X171750523Y-94989162D01*
X171887366Y-95154578D01*
X171918086Y-95185085D01*
X171948293Y-95215932D01*
X171953413Y-95220167D01*
X171953422Y-95220176D01*
X171953432Y-95220182D01*
X172119792Y-95355862D01*
X172155826Y-95379803D01*
X172191472Y-95404211D01*
X172197330Y-95407379D01*
X172386884Y-95508167D01*
X172426861Y-95524644D01*
X172466592Y-95541673D01*
X172472951Y-95543641D01*
X172472957Y-95543643D01*
X172678474Y-95605692D01*
X172720865Y-95614086D01*
X172763172Y-95623079D01*
X172769794Y-95623775D01*
X172769796Y-95623775D01*
X172983454Y-95644724D01*
X172983469Y-95644724D01*
X173006577Y-95647000D01*
X175053001Y-95647000D01*
X175053000Y-99896675D01*
X174997945Y-100458168D01*
X174841651Y-100975839D01*
X174587786Y-101453288D01*
X174246018Y-101872338D01*
X173829364Y-102217024D01*
X173353697Y-102474217D01*
X172837128Y-102634122D01*
X172276938Y-102693000D01*
X168706824Y-102693000D01*
X168739494Y-102675537D01*
X168836185Y-102596185D01*
X168915537Y-102499494D01*
X168974502Y-102389180D01*
X169010812Y-102269482D01*
X169023072Y-102145000D01*
X169020000Y-101755750D01*
X168861250Y-101597000D01*
X167837000Y-101597000D01*
X167837000Y-101617000D01*
X167583000Y-101617000D01*
X167583000Y-101597000D01*
X167563000Y-101597000D01*
X167563000Y-101343000D01*
X167583000Y-101343000D01*
X167583000Y-100318750D01*
X167837000Y-100318750D01*
X167837000Y-101343000D01*
X168861250Y-101343000D01*
X169020000Y-101184250D01*
X169023072Y-100795000D01*
X169010812Y-100670518D01*
X168974502Y-100550820D01*
X168915537Y-100440506D01*
X168836185Y-100343815D01*
X168739494Y-100264463D01*
X168629180Y-100205498D01*
X168509482Y-100169188D01*
X168385000Y-100156928D01*
X167995750Y-100160000D01*
X167837000Y-100318750D01*
X167583000Y-100318750D01*
X167424250Y-100160000D01*
X167035000Y-100156928D01*
X166910518Y-100169188D01*
X166790820Y-100205498D01*
X166680506Y-100264463D01*
X166583815Y-100343815D01*
X166504463Y-100440506D01*
X166445498Y-100550820D01*
X166423104Y-100624641D01*
X166412484Y-100614021D01*
X166231993Y-100493420D01*
X166031442Y-100410349D01*
X165818538Y-100368000D01*
X165601462Y-100368000D01*
X165388558Y-100410349D01*
X165188007Y-100493420D01*
X165007516Y-100614021D01*
X164854021Y-100767516D01*
X164733420Y-100948007D01*
X164650349Y-101148558D01*
X164608000Y-101361462D01*
X164608000Y-101578538D01*
X164650349Y-101791442D01*
X164733420Y-101991993D01*
X164854021Y-102172484D01*
X165007516Y-102325979D01*
X165188007Y-102446580D01*
X165388558Y-102529651D01*
X165601462Y-102572000D01*
X165818538Y-102572000D01*
X166031442Y-102529651D01*
X166231993Y-102446580D01*
X166412484Y-102325979D01*
X166423104Y-102315359D01*
X166445498Y-102389180D01*
X166504463Y-102499494D01*
X166583815Y-102596185D01*
X166680506Y-102675537D01*
X166713176Y-102693000D01*
X158606824Y-102693000D01*
X158639494Y-102675537D01*
X158736185Y-102596185D01*
X158815537Y-102499494D01*
X158874502Y-102389180D01*
X158910812Y-102269482D01*
X158923072Y-102145000D01*
X158920000Y-101755750D01*
X158761250Y-101597000D01*
X157737000Y-101597000D01*
X157737000Y-101617000D01*
X157483000Y-101617000D01*
X157483000Y-101597000D01*
X157463000Y-101597000D01*
X157463000Y-101343000D01*
X157483000Y-101343000D01*
X157483000Y-100318750D01*
X157737000Y-100318750D01*
X157737000Y-101343000D01*
X158761250Y-101343000D01*
X158920000Y-101184250D01*
X158923072Y-100795000D01*
X158910812Y-100670518D01*
X158874502Y-100550820D01*
X158815537Y-100440506D01*
X158736185Y-100343815D01*
X158639494Y-100264463D01*
X158529180Y-100205498D01*
X158409482Y-100169188D01*
X158285000Y-100156928D01*
X157895750Y-100160000D01*
X157737000Y-100318750D01*
X157483000Y-100318750D01*
X157324250Y-100160000D01*
X156935000Y-100156928D01*
X156810518Y-100169188D01*
X156690820Y-100205498D01*
X156580506Y-100264463D01*
X156483815Y-100343815D01*
X156404463Y-100440506D01*
X156345498Y-100550820D01*
X156323104Y-100624641D01*
X156312484Y-100614021D01*
X156131993Y-100493420D01*
X155931442Y-100410349D01*
X155718538Y-100368000D01*
X155501462Y-100368000D01*
X155288558Y-100410349D01*
X155088007Y-100493420D01*
X154907516Y-100614021D01*
X154754021Y-100767516D01*
X154633420Y-100948007D01*
X154550349Y-101148558D01*
X154508000Y-101361462D01*
X154508000Y-101578538D01*
X154550349Y-101791442D01*
X154633420Y-101991993D01*
X154754021Y-102172484D01*
X154907516Y-102325979D01*
X155088007Y-102446580D01*
X155288558Y-102529651D01*
X155501462Y-102572000D01*
X155718538Y-102572000D01*
X155931442Y-102529651D01*
X156131993Y-102446580D01*
X156312484Y-102325979D01*
X156323104Y-102315359D01*
X156345498Y-102389180D01*
X156404463Y-102499494D01*
X156483815Y-102596185D01*
X156580506Y-102675537D01*
X156613176Y-102693000D01*
X148506824Y-102693000D01*
X148539494Y-102675537D01*
X148636185Y-102596185D01*
X148715537Y-102499494D01*
X148774502Y-102389180D01*
X148810812Y-102269482D01*
X148823072Y-102145000D01*
X148820000Y-101755750D01*
X148661250Y-101597000D01*
X147637000Y-101597000D01*
X147637000Y-101617000D01*
X147383000Y-101617000D01*
X147383000Y-101597000D01*
X147363000Y-101597000D01*
X147363000Y-101343000D01*
X147383000Y-101343000D01*
X147383000Y-100318750D01*
X147637000Y-100318750D01*
X147637000Y-101343000D01*
X148661250Y-101343000D01*
X148820000Y-101184250D01*
X148823072Y-100795000D01*
X148810812Y-100670518D01*
X148774502Y-100550820D01*
X148715537Y-100440506D01*
X148636185Y-100343815D01*
X148539494Y-100264463D01*
X148429180Y-100205498D01*
X148309482Y-100169188D01*
X148185000Y-100156928D01*
X147795750Y-100160000D01*
X147637000Y-100318750D01*
X147383000Y-100318750D01*
X147224250Y-100160000D01*
X146835000Y-100156928D01*
X146710518Y-100169188D01*
X146590820Y-100205498D01*
X146480506Y-100264463D01*
X146383815Y-100343815D01*
X146304463Y-100440506D01*
X146245498Y-100550820D01*
X146223104Y-100624641D01*
X146212484Y-100614021D01*
X146141200Y-100566390D01*
X146141200Y-95621450D01*
X147114399Y-94648252D01*
X147138485Y-94628485D01*
X147217363Y-94532373D01*
X147275974Y-94422718D01*
X147312067Y-94303737D01*
X147321200Y-94211008D01*
X147321200Y-94211001D01*
X147324253Y-94180001D01*
X147321200Y-94149001D01*
X147321200Y-93571000D01*
X147324253Y-93540000D01*
X147321200Y-93509000D01*
X147321200Y-93508992D01*
X147312067Y-93416263D01*
X147275974Y-93297282D01*
X147217363Y-93187627D01*
X147138485Y-93091515D01*
X147114393Y-93071743D01*
X146973648Y-92930998D01*
X146969062Y-92907942D01*
X146914259Y-92775636D01*
X146834698Y-92656564D01*
X146733436Y-92555302D01*
X146614364Y-92475741D01*
X146482058Y-92420938D01*
X146341603Y-92393000D01*
X146198397Y-92393000D01*
X146057942Y-92420938D01*
X145925636Y-92475741D01*
X145806564Y-92555302D01*
X145705302Y-92656564D01*
X145625741Y-92775636D01*
X145570938Y-92907942D01*
X145543000Y-93048397D01*
X145543000Y-93191603D01*
X145570938Y-93332058D01*
X145625741Y-93464364D01*
X145705302Y-93583436D01*
X145806564Y-93684698D01*
X145925636Y-93764259D01*
X146057942Y-93819062D01*
X146058800Y-93819233D01*
X146058800Y-93918549D01*
X145085602Y-94891748D01*
X145061516Y-94911515D01*
X145041749Y-94935601D01*
X144982637Y-95007628D01*
X144924027Y-95117282D01*
X144887933Y-95236264D01*
X144875747Y-95360000D01*
X144878801Y-95391010D01*
X144878800Y-100566390D01*
X144807516Y-100614021D01*
X144654021Y-100767516D01*
X144533420Y-100948007D01*
X144450349Y-101148558D01*
X144408000Y-101361462D01*
X144408000Y-101578538D01*
X144450349Y-101791442D01*
X144533420Y-101991993D01*
X144654021Y-102172484D01*
X144807516Y-102325979D01*
X144988007Y-102446580D01*
X145188558Y-102529651D01*
X145401462Y-102572000D01*
X145618538Y-102572000D01*
X145831442Y-102529651D01*
X146031993Y-102446580D01*
X146212484Y-102325979D01*
X146223104Y-102315359D01*
X146245498Y-102389180D01*
X146304463Y-102499494D01*
X146383815Y-102596185D01*
X146480506Y-102675537D01*
X146513176Y-102693000D01*
X138406824Y-102693000D01*
X138439494Y-102675537D01*
X138536185Y-102596185D01*
X138615537Y-102499494D01*
X138674502Y-102389180D01*
X138710812Y-102269482D01*
X138723072Y-102145000D01*
X138720000Y-101755750D01*
X138561250Y-101597000D01*
X137537000Y-101597000D01*
X137537000Y-101617000D01*
X137283000Y-101617000D01*
X137283000Y-101597000D01*
X137263000Y-101597000D01*
X137263000Y-101343000D01*
X137283000Y-101343000D01*
X137283000Y-100318750D01*
X137537000Y-100318750D01*
X137537000Y-101343000D01*
X138561250Y-101343000D01*
X138720000Y-101184250D01*
X138723072Y-100795000D01*
X138710812Y-100670518D01*
X138674502Y-100550820D01*
X138615537Y-100440506D01*
X138536185Y-100343815D01*
X138439494Y-100264463D01*
X138329180Y-100205498D01*
X138209482Y-100169188D01*
X138085000Y-100156928D01*
X137695750Y-100160000D01*
X137537000Y-100318750D01*
X137283000Y-100318750D01*
X137124250Y-100160000D01*
X136735000Y-100156928D01*
X136610518Y-100169188D01*
X136490820Y-100205498D01*
X136380506Y-100264463D01*
X136283815Y-100343815D01*
X136204463Y-100440506D01*
X136145498Y-100550820D01*
X136123104Y-100624641D01*
X136112484Y-100614021D01*
X135931993Y-100493420D01*
X135731442Y-100410349D01*
X135518538Y-100368000D01*
X135301462Y-100368000D01*
X135088558Y-100410349D01*
X134888007Y-100493420D01*
X134707516Y-100614021D01*
X134554021Y-100767516D01*
X134433420Y-100948007D01*
X134350349Y-101148558D01*
X134308000Y-101361462D01*
X134308000Y-101578538D01*
X134350349Y-101791442D01*
X134433420Y-101991993D01*
X134554021Y-102172484D01*
X134707516Y-102325979D01*
X134888007Y-102446580D01*
X135088558Y-102529651D01*
X135301462Y-102572000D01*
X135518538Y-102572000D01*
X135731442Y-102529651D01*
X135931993Y-102446580D01*
X136112484Y-102325979D01*
X136123104Y-102315359D01*
X136145498Y-102389180D01*
X136204463Y-102499494D01*
X136283815Y-102596185D01*
X136380506Y-102675537D01*
X136413176Y-102693000D01*
X128306824Y-102693000D01*
X128339494Y-102675537D01*
X128436185Y-102596185D01*
X128515537Y-102499494D01*
X128574502Y-102389180D01*
X128610812Y-102269482D01*
X128623072Y-102145000D01*
X128620000Y-101755750D01*
X128461250Y-101597000D01*
X127437000Y-101597000D01*
X127437000Y-101617000D01*
X127183000Y-101617000D01*
X127183000Y-101597000D01*
X127163000Y-101597000D01*
X127163000Y-101343000D01*
X127183000Y-101343000D01*
X127183000Y-100318750D01*
X127437000Y-100318750D01*
X127437000Y-101343000D01*
X128461250Y-101343000D01*
X128620000Y-101184250D01*
X128623072Y-100795000D01*
X128610812Y-100670518D01*
X128574502Y-100550820D01*
X128515537Y-100440506D01*
X128436185Y-100343815D01*
X128339494Y-100264463D01*
X128229180Y-100205498D01*
X128109482Y-100169188D01*
X127985000Y-100156928D01*
X127595750Y-100160000D01*
X127437000Y-100318750D01*
X127183000Y-100318750D01*
X127024250Y-100160000D01*
X126635000Y-100156928D01*
X126510518Y-100169188D01*
X126390820Y-100205498D01*
X126280506Y-100264463D01*
X126183815Y-100343815D01*
X126104463Y-100440506D01*
X126045498Y-100550820D01*
X126023104Y-100624641D01*
X126012484Y-100614021D01*
X125831993Y-100493420D01*
X125631442Y-100410349D01*
X125418538Y-100368000D01*
X125201462Y-100368000D01*
X124988558Y-100410349D01*
X124788007Y-100493420D01*
X124607516Y-100614021D01*
X124454021Y-100767516D01*
X124333420Y-100948007D01*
X124250349Y-101148558D01*
X124208000Y-101361462D01*
X124208000Y-101578538D01*
X124250349Y-101791442D01*
X124333420Y-101991993D01*
X124454021Y-102172484D01*
X124607516Y-102325979D01*
X124788007Y-102446580D01*
X124988558Y-102529651D01*
X125201462Y-102572000D01*
X125418538Y-102572000D01*
X125631442Y-102529651D01*
X125831993Y-102446580D01*
X126012484Y-102325979D01*
X126023104Y-102315359D01*
X126045498Y-102389180D01*
X126104463Y-102499494D01*
X126183815Y-102596185D01*
X126280506Y-102675537D01*
X126313176Y-102693000D01*
X118206824Y-102693000D01*
X118239494Y-102675537D01*
X118336185Y-102596185D01*
X118415537Y-102499494D01*
X118474502Y-102389180D01*
X118510812Y-102269482D01*
X118523072Y-102145000D01*
X118520000Y-101755750D01*
X118361250Y-101597000D01*
X117337000Y-101597000D01*
X117337000Y-101617000D01*
X117083000Y-101617000D01*
X117083000Y-101597000D01*
X117063000Y-101597000D01*
X117063000Y-101343000D01*
X117083000Y-101343000D01*
X117083000Y-100318750D01*
X117337000Y-100318750D01*
X117337000Y-101343000D01*
X118361250Y-101343000D01*
X118520000Y-101184250D01*
X118523072Y-100795000D01*
X118510812Y-100670518D01*
X118474502Y-100550820D01*
X118415537Y-100440506D01*
X118336185Y-100343815D01*
X118239494Y-100264463D01*
X118129180Y-100205498D01*
X118009482Y-100169188D01*
X117885000Y-100156928D01*
X117495750Y-100160000D01*
X117337000Y-100318750D01*
X117083000Y-100318750D01*
X116924250Y-100160000D01*
X116535000Y-100156928D01*
X116410518Y-100169188D01*
X116290820Y-100205498D01*
X116180506Y-100264463D01*
X116083815Y-100343815D01*
X116004463Y-100440506D01*
X115945498Y-100550820D01*
X115923104Y-100624641D01*
X115912484Y-100614021D01*
X115731993Y-100493420D01*
X115531442Y-100410349D01*
X115318538Y-100368000D01*
X115101462Y-100368000D01*
X114888558Y-100410349D01*
X114688007Y-100493420D01*
X114507516Y-100614021D01*
X114354021Y-100767516D01*
X114233420Y-100948007D01*
X114150349Y-101148558D01*
X114108000Y-101361462D01*
X114108000Y-101578538D01*
X114150349Y-101791442D01*
X114233420Y-101991993D01*
X114354021Y-102172484D01*
X114507516Y-102325979D01*
X114688007Y-102446580D01*
X114888558Y-102529651D01*
X115101462Y-102572000D01*
X115318538Y-102572000D01*
X115531442Y-102529651D01*
X115731993Y-102446580D01*
X115912484Y-102325979D01*
X115923104Y-102315359D01*
X115945498Y-102389180D01*
X116004463Y-102499494D01*
X116083815Y-102596185D01*
X116180506Y-102675537D01*
X116213176Y-102693000D01*
X108803324Y-102693000D01*
X108241832Y-102637945D01*
X107724161Y-102481651D01*
X107246712Y-102227786D01*
X106827662Y-101886018D01*
X106482976Y-101469364D01*
X106225783Y-100993697D01*
X106065878Y-100477128D01*
X106007000Y-99916938D01*
X106007000Y-95748397D01*
X125343000Y-95748397D01*
X125343000Y-95891603D01*
X125370938Y-96032058D01*
X125425741Y-96164364D01*
X125505302Y-96283436D01*
X125606564Y-96384698D01*
X125725636Y-96464259D01*
X125857942Y-96519062D01*
X125998397Y-96547000D01*
X126141603Y-96547000D01*
X126282058Y-96519062D01*
X126414364Y-96464259D01*
X126533436Y-96384698D01*
X126634698Y-96283436D01*
X126714259Y-96164364D01*
X126769062Y-96032058D01*
X126773648Y-96009002D01*
X128800572Y-93982079D01*
X139637319Y-93982079D01*
X139637319Y-94157921D01*
X139671625Y-94330385D01*
X139738917Y-94492843D01*
X139836610Y-94639051D01*
X139960949Y-94763390D01*
X140107157Y-94861083D01*
X140269615Y-94928375D01*
X140442079Y-94962681D01*
X140617921Y-94962681D01*
X140790385Y-94928375D01*
X140952843Y-94861083D01*
X141099051Y-94763390D01*
X141223390Y-94639051D01*
X141321083Y-94492843D01*
X141388375Y-94330385D01*
X141422681Y-94157921D01*
X141422681Y-93982079D01*
X141388375Y-93809615D01*
X141321083Y-93647157D01*
X141223390Y-93500949D01*
X141099051Y-93376610D01*
X140952843Y-93278917D01*
X140790385Y-93211625D01*
X140617921Y-93177319D01*
X140442079Y-93177319D01*
X140269615Y-93211625D01*
X140107157Y-93278917D01*
X139960949Y-93376610D01*
X139836610Y-93500949D01*
X139738917Y-93647157D01*
X139671625Y-93809615D01*
X139637319Y-93982079D01*
X128800572Y-93982079D01*
X130061452Y-92721200D01*
X144606092Y-92721200D01*
X144625636Y-92734259D01*
X144757942Y-92789062D01*
X144898397Y-92817000D01*
X145041603Y-92817000D01*
X145182058Y-92789062D01*
X145314364Y-92734259D01*
X145433436Y-92654698D01*
X145534698Y-92553436D01*
X145614259Y-92434364D01*
X145669062Y-92302058D01*
X145697000Y-92161603D01*
X145697000Y-92018397D01*
X145669062Y-91877942D01*
X145614259Y-91745636D01*
X145534698Y-91626564D01*
X145433436Y-91525302D01*
X145314364Y-91445741D01*
X145182058Y-91390938D01*
X145041603Y-91363000D01*
X144898397Y-91363000D01*
X144757942Y-91390938D01*
X144625636Y-91445741D01*
X144606092Y-91458800D01*
X129831000Y-91458800D01*
X129800000Y-91455747D01*
X129769000Y-91458800D01*
X129768992Y-91458800D01*
X129676263Y-91467933D01*
X129557281Y-91504026D01*
X129447627Y-91562637D01*
X129375600Y-91621748D01*
X129375596Y-91621752D01*
X129351515Y-91641515D01*
X129331752Y-91665596D01*
X125880998Y-95116352D01*
X125857942Y-95120938D01*
X125725636Y-95175741D01*
X125606564Y-95255302D01*
X125505302Y-95356564D01*
X125425741Y-95475636D01*
X125370938Y-95607942D01*
X125343000Y-95748397D01*
X106007000Y-95748397D01*
X106007000Y-95647000D01*
X108053423Y-95647000D01*
X108077619Y-95644617D01*
X108091906Y-95644617D01*
X108098530Y-95643920D01*
X108311875Y-95619989D01*
X108354181Y-95610997D01*
X108396570Y-95602604D01*
X108402929Y-95600635D01*
X108402935Y-95600634D01*
X108402941Y-95600632D01*
X108607566Y-95535721D01*
X108647304Y-95518689D01*
X108687274Y-95502216D01*
X108693132Y-95499048D01*
X108881260Y-95395623D01*
X108916925Y-95371203D01*
X108952942Y-95347274D01*
X108958067Y-95343034D01*
X108958074Y-95343029D01*
X108958079Y-95343023D01*
X109122530Y-95205033D01*
X109152784Y-95174139D01*
X109183455Y-95143682D01*
X109187659Y-95138526D01*
X109187665Y-95138520D01*
X109187669Y-95138513D01*
X109322185Y-94971211D01*
X109345862Y-94935028D01*
X109370035Y-94899192D01*
X109373161Y-94893311D01*
X109472622Y-94703058D01*
X109488826Y-94662951D01*
X109505570Y-94623120D01*
X109507495Y-94616744D01*
X109568109Y-94410796D01*
X109576217Y-94368291D01*
X109584903Y-94325979D01*
X109585553Y-94319350D01*
X109605010Y-94105552D01*
X109604708Y-94062288D01*
X109605010Y-94019090D01*
X109604360Y-94012462D01*
X109581920Y-93798955D01*
X109573228Y-93756612D01*
X109565126Y-93714135D01*
X109563200Y-93707759D01*
X109499716Y-93502679D01*
X109482963Y-93462823D01*
X109466769Y-93422741D01*
X109463645Y-93416868D01*
X109463641Y-93416858D01*
X109463636Y-93416850D01*
X109361533Y-93228015D01*
X109337373Y-93192196D01*
X109313687Y-93155999D01*
X109309477Y-93150838D01*
X109172634Y-92985422D01*
X109141947Y-92954948D01*
X109111707Y-92924068D01*
X109106581Y-92919828D01*
X109106577Y-92919824D01*
X109106573Y-92919821D01*
X108940208Y-92784138D01*
X108904223Y-92760230D01*
X108868528Y-92735788D01*
X108862672Y-92732622D01*
X108862664Y-92732618D01*
X108673116Y-92631833D01*
X108633111Y-92615344D01*
X108593408Y-92598327D01*
X108587056Y-92596361D01*
X108587046Y-92596357D01*
X108587036Y-92596355D01*
X108381526Y-92534308D01*
X108339135Y-92525914D01*
X108296828Y-92516921D01*
X108290205Y-92516225D01*
X108076546Y-92495276D01*
X108076531Y-92495276D01*
X108053423Y-92493000D01*
X106007000Y-92493000D01*
X106007000Y-88243324D01*
X106062055Y-87681837D01*
X106139598Y-87425000D01*
X111886928Y-87425000D01*
X111899188Y-87549482D01*
X111935498Y-87669180D01*
X111994463Y-87779494D01*
X112073815Y-87876185D01*
X112170506Y-87955537D01*
X112280820Y-88014502D01*
X112400518Y-88050812D01*
X112525000Y-88063072D01*
X112914250Y-88060000D01*
X113073000Y-87901250D01*
X113073000Y-86877000D01*
X113327000Y-86877000D01*
X113327000Y-87901250D01*
X113485750Y-88060000D01*
X113875000Y-88063072D01*
X113999482Y-88050812D01*
X114119180Y-88014502D01*
X114229494Y-87955537D01*
X114326185Y-87876185D01*
X114403119Y-87782441D01*
X114536371Y-87879473D01*
X114769472Y-87987238D01*
X114870600Y-88017910D01*
X115073000Y-87894224D01*
X115073000Y-86877000D01*
X113327000Y-86877000D01*
X113073000Y-86877000D01*
X112048750Y-86877000D01*
X111890000Y-87035750D01*
X111886928Y-87425000D01*
X106139598Y-87425000D01*
X106218349Y-87164162D01*
X106472216Y-86686709D01*
X106813982Y-86267663D01*
X107230638Y-85922975D01*
X107706303Y-85665783D01*
X108222872Y-85505878D01*
X108783062Y-85447000D01*
X112422734Y-85447000D01*
X112400518Y-85449188D01*
%TD*%
M02*
