0
SECTION
2
HEADER
9
$INSUNITS
70
4
9
$ACADVER
1
AC1014
9
$HANDSEED
5
FFFF
0
ENDSEC
0
SECTION
2
TABLES
0
TABLE
2
VPORT
5
8
100
AcDbSymbolTable
0
ENDTAB
0
TABLE
2
LTYPE
5
5
100
AcDbSymbolTable
0
LTYPE
5
14
100
AcDbSymbolTableRecord
100
AcDbLinetypeTableRecord
2
BYBLOCK
70
0
0
LTYPE
5
15
100
AcDbSymbolTableRecord
100
AcDbLinetypeTableRecord
2
BYLAYER
70
0
0
ENDTAB
0
TABLE
2
LAYER
5
2
100
AcDbSymbolTable
70
2
0
LAYER
5
50
100
AcDbSymbolTableRecord
100
AcDbLayerTableRecord
2
0
70
0
6
CONTINUOUS
0
ENDTAB
0
TABLE
2
STYLE
5
3
100
AcDbSymbolTable
70
1
0
STYLE
5
11
100
AcDbSymbolTableRecord
100
AcDbTextStyleTableRecord
2
STANDARD
70
0
0
ENDTAB
0
TABLE
2
VIEW
5
6
100
AcDbSymbolTable
70
0
0
ENDTAB
0
TABLE
2
UCS
5
7
100
AcDbSymbolTable
70
0
0
ENDTAB
0
TABLE
2
APPID
5
9
100
AcDbSymbolTable
70
2
0
APPID
5
12
100
AcDbSymbolTableRecord
100
AcDbRegAppTableRecord
2
ACAD
70
0
0
ENDTAB
0
TABLE
2
DIMSTYLE
5
A
100
AcDbSymbolTable
70
1
0
ENDTAB
0
TABLE
2
BLOCK_RECORD
5
1
100
AcDbSymbolTable
70
1
0
BLOCK_RECORD
5
1F
100
AcDbSymbolTableRecord
100
AcDbBlockTableRecord
2
*MODEL_SPACE
0
BLOCK_RECORD
5
1B
100
AcDbSymbolTableRecord
100
AcDbBlockTableRecord
2
*PAPER_SPACE
0
ENDTAB
0
ENDSEC
0
SECTION
2
BLOCKS
0
BLOCK
5
20
100
AcDbEntity
100
AcDbBlockBegin
2
*MODEL_SPACE
0
ENDBLK
5
21
100
AcDbEntity
100
AcDbBlockEnd
0
BLOCK
5
1C
100
AcDbEntity
100
AcDbBlockBegin
2
*PAPER_SPACE
0
ENDBLK
5
1D
100
AcDbEntity
100
AcDbBlockEnd
0
ENDSEC
0
SECTION
2
ENTITIES
0
LWPOLYLINE
5
100
100
AcDbEntity
8
0
100
AcDbPolyline
90
16
70
1
43
0.0
10
3.2500000000000009
20
0
42
-0.41421356237309503
10
0
20
3.2499999999999996
10
-5.5511151231257827e-16
20
8.0000000000000089
10
2.4999999999999996
20
8.0000000000000107
42
0.99999999999999989
10
2.4999999999999996
20
10.20000000000001
10
-6.2456986756515058e-16
20
10.20000000000001
10
2.2204460492503131e-15
20
14.95000000000001
42
-0.41421356237309503
10
3.2500000000000018
20
18.20000000000001
10
66.75
20
18.199999999999982
42
-0.41421356237309503
10
70.000000000000014
20
14.949999999999978
10
70
20
10.199999999999992
10
67.5
20
10.199999999999999
42
0.99999999999999989
10
67.5
20
7.9999999999999973
10
70
20
7.9999999999999938
10
70
20
3.25
42
-0.41421356237309503
10
66.75
20
0
0
CIRCLE
5
101
100
AcDbEntity
8
0
100
AcDbCircle
10
7.6799999999999251
20
1.7799999999999989
30
0
40
0.3499999999999992
0
CIRCLE
5
102
100
AcDbEntity
8
0
100
AcDbCircle
10
9.6800000000000086
20
1.7800000000000005
30
0
40
0.3499999999999992
0
CIRCLE
5
103
100
AcDbEntity
8
0
100
AcDbCircle
10
11.680000000000096
20
1.7800000000000005
30
0
40
0.35000000000000142
0
CIRCLE
5
104
100
AcDbEntity
8
0
100
AcDbCircle
10
17.779999999999927
20
1.7799999999998983
30
0
40
0.3499999999999992
0
CIRCLE
5
105
100
AcDbEntity
8
0
100
AcDbCircle
10
19.780000000000012
20
1.7800000000000005
30
0
40
0.35000000000000142
0
CIRCLE
5
106
100
AcDbEntity
8
0
100
AcDbCircle
10
21.780000000000108
20
1.7800000000000005
30
0
40
0.35000000000000142
0
CIRCLE
5
107
100
AcDbEntity
8
0
100
AcDbCircle
10
27.880000000000006
20
1.7800000000000002
30
0
40
0.34999999999999698
0
CIRCLE
5
108
100
AcDbEntity
8
0
100
AcDbCircle
10
29.88000000000001
20
1.7800000000000002
30
0
40
0.35000000000000142
0
CIRCLE
5
109
100
AcDbEntity
8
0
100
AcDbCircle
10
31.88000000000001
20
1.7800000000000002
30
0
40
0.35000000000000142
0
CIRCLE
5
110
100
AcDbEntity
8
0
100
AcDbCircle
10
37.980000000000004
20
1.7799999999999974
30
0
40
0.35000000000000586
0
CIRCLE
5
111
100
AcDbEntity
8
0
100
AcDbCircle
10
39.980000000000004
20
1.7799999999999996
30
0
40
0.35000000000000142
0
CIRCLE
5
112
100
AcDbEntity
8
0
100
AcDbCircle
10
41.980000000000004
20
1.7800000000000005
30
0
40
0.35000000000000142
0
CIRCLE
5
113
100
AcDbEntity
8
0
100
AcDbCircle
10
48.080000000000013
20
1.7800000000000018
30
0
40
0.34999999999999254
0
CIRCLE
5
114
100
AcDbEntity
8
0
100
AcDbCircle
10
50.08000000000002
20
1.7800000000000005
30
0
40
0.35000000000000142
0
CIRCLE
5
115
100
AcDbEntity
8
0
100
AcDbCircle
10
52.079999999999998
20
1.7799999999999991
30
0
40
0.35000000000000142
0
CIRCLE
5
116
100
AcDbEntity
8
0
100
AcDbCircle
10
58.180000000000007
20
1.7800000000000005
30
0
40
0.35000000000000142
0
CIRCLE
5
117
100
AcDbEntity
8
0
100
AcDbCircle
10
60.180000000000007
20
1.7800000000000005
30
0
40
0.35000000000000142
0
CIRCLE
5
118
100
AcDbEntity
8
0
100
AcDbCircle
10
62.180000000000007
20
1.7800000000000029
30
0
40
0.35000000000000142
0
CIRCLE
5
119
100
AcDbEntity
8
0
100
AcDbCircle
10
62.189999999999998
20
16.490024054398386
30
0
40
0.35000000000000142
0
CIRCLE
5
120
100
AcDbEntity
8
0
100
AcDbCircle
10
60.189999999999998
20
16.490024054398404
30
0
40
0.34999999999999254
0
CIRCLE
5
121
100
AcDbEntity
8
0
100
AcDbCircle
10
52.089999999999996
20
16.490024054398386
30
0
40
0.35000000000000142
0
CIRCLE
5
122
100
AcDbEntity
8
0
100
AcDbCircle
10
50.090000000000003
20
16.49002405439839
30
0
40
0.35000000000000142
0
CIRCLE
5
123
100
AcDbEntity
8
0
100
AcDbCircle
10
41.989999999999995
20
16.490024054398393
30
0
40
0.35000000000000142
0
CIRCLE
5
124
100
AcDbEntity
8
0
100
AcDbCircle
10
39.989999999999995
20
16.490024054398393
30
0
40
0.35000000000000142
0
CIRCLE
5
125
100
AcDbEntity
8
0
100
AcDbCircle
10
31.890000000000004
20
16.490024054398397
30
0
40
0.35000000000000142
0
CIRCLE
5
126
100
AcDbEntity
8
0
100
AcDbCircle
10
29.890000000000011
20
16.490024054398397
30
0
40
0.34999999999999698
0
CIRCLE
5
127
100
AcDbEntity
8
0
100
AcDbCircle
10
35.000000000000007
20
9.0999999999999979
30
0
40
0.40000000000000036
0
CIRCLE
5
128
100
AcDbEntity
8
0
100
AcDbCircle
10
21.790000000000006
20
16.490024054398404
30
0
40
0.35000000000000142
0
CIRCLE
5
129
100
AcDbEntity
8
0
100
AcDbCircle
10
19.790000000000013
20
16.490024054398404
30
0
40
0.35000000000000142
0
CIRCLE
5
130
100
AcDbEntity
8
0
100
AcDbCircle
10
11.690000000000003
20
16.4900240543984
30
0
40
0.35000000000000142
0
CIRCLE
5
131
100
AcDbEntity
8
0
100
AcDbCircle
10
9.6900000000000102
20
16.490024054398397
30
0
40
0.35000000000000142
0
ENDSEC
0
SECTION
2
OBJECTS
0
DICTIONARY
5
C
100
AcDbDictionary
3
ACAD_GROUP
350
D
3
ACAD_MLINESTYLE
350
17
0
DICTIONARY
5
D
100
AcDbDictionary
0
DICTIONARY
5
1A
330
C
100
AcDbDictionary
0
DICTIONARY
5
17
100
AcDbDictionary
0
ENDSEC
0
EOF
