0
SECTION
2
HEADER
9
$INSUNITS
70
4
9
$ACADVER
1
AC1014
9
$HANDSEED
5
FFFF
0
ENDSEC
0
SECTION
2
TABLES
0
TABLE
2
VPORT
5
8
100
AcDbSymbolTable
0
ENDTAB
0
TABLE
2
LTYPE
5
5
100
AcDbSymbolTable
0
LTYPE
5
14
100
AcDbSymbolTableRecord
100
AcDbLinetypeTableRecord
2
BYBLOCK
70
0
0
LTYPE
5
15
100
AcDbSymbolTableRecord
100
AcDbLinetypeTableRecord
2
BYLAYER
70
0
0
ENDTAB
0
TABLE
2
LAYER
5
2
100
AcDbSymbolTable
70
2
0
LAYER
5
50
100
AcDbSymbolTableRecord
100
AcDbLayerTableRecord
2
0
70
0
6
CONTINUOUS
0
ENDTAB
0
TABLE
2
STYLE
5
3
100
AcDbSymbolTable
70
1
0
STYLE
5
11
100
AcDbSymbolTableRecord
100
AcDbTextStyleTableRecord
2
STANDARD
70
0
0
ENDTAB
0
TABLE
2
VIEW
5
6
100
AcDbSymbolTable
70
0
0
ENDTAB
0
TABLE
2
UCS
5
7
100
AcDbSymbolTable
70
0
0
ENDTAB
0
TABLE
2
APPID
5
9
100
AcDbSymbolTable
70
2
0
APPID
5
12
100
AcDbSymbolTableRecord
100
AcDbRegAppTableRecord
2
ACAD
70
0
0
ENDTAB
0
TABLE
2
DIMSTYLE
5
A
100
AcDbSymbolTable
70
1
0
ENDTAB
0
TABLE
2
BLOCK_RECORD
5
1
100
AcDbSymbolTable
70
1
0
BLOCK_RECORD
5
1F
100
AcDbSymbolTableRecord
100
AcDbBlockTableRecord
2
*MODEL_SPACE
0
BLOCK_RECORD
5
1B
100
AcDbSymbolTableRecord
100
AcDbBlockTableRecord
2
*PAPER_SPACE
0
ENDTAB
0
ENDSEC
0
SECTION
2
BLOCKS
0
BLOCK
5
20
100
AcDbEntity
100
AcDbBlockBegin
2
*MODEL_SPACE
0
ENDBLK
5
21
100
AcDbEntity
100
AcDbBlockEnd
0
BLOCK
5
1C
100
AcDbEntity
100
AcDbBlockBegin
2
*PAPER_SPACE
0
ENDBLK
5
1D
100
AcDbEntity
100
AcDbBlockEnd
0
ENDSEC
0
SECTION
2
ENTITIES
0
ARC
5
100
100
AcDbEntity
8
0
100
AcDbCircle
10
0
20
9.100000000000005
30
0
40
3.375
100
AcDbArc
50
-60.622207616600946
51
60.62220761660091
0
ARC
5
101
100
AcDbEntity
8
0
100
AcDbCircle
10
3.2499999999999996
20
3.3269483806222588
30
0
40
3.2500000000000009
100
AcDbArc
50
119.37779238339908
51
180
0
ARC
5
102
100
AcDbEntity
8
0
100
AcDbCircle
10
3.25
20
3.2499999999999996
30
0
40
3.2500000000000009
100
AcDbArc
50
180
51
270
0
ARC
5
103
100
AcDbEntity
8
0
100
AcDbCircle
10
3.2499999999999996
20
14.873051619377751
30
0
40
3.2499999999999996
100
AcDbArc
50
180
51
240.62220761660097
0
ARC
5
104
100
AcDbEntity
8
0
100
AcDbCircle
10
3.2500000000000018
20
14.95000000000001
30
0
40
3.2500000000000018
100
AcDbArc
50
89.999999999999844
51
180
0
LINE
5
105
100
AcDbEntity
8
0
100
AcDbLine
10
91.950000000000017
20
18.199999999999967
30
0
11
3.2500000000000111
21
18.20000000000001
31
0
0
LINE
5
106
100
AcDbEntity
8
0
100
AcDbLine
10
3.2499999999999996
20
-1.1102230246251565e-15
30
0
11
91.950000000000017
21
0
31
0
0
ARC
5
107
100
AcDbEntity
8
0
100
AcDbCircle
10
91.950000000000017
20
14.949999999999966
30
0
40
3.2499999999999929
100
AcDbArc
50
0
51
90
0
ARC
5
108
100
AcDbEntity
8
0
100
AcDbCircle
10
91.950000000000017
20
14.873051619377735
30
0
40
3.2500000000000013
100
AcDbArc
50
-60.622207616600846
51
0
0
ARC
5
109
100
AcDbEntity
8
0
100
AcDbCircle
10
95.200000000000017
20
9.0999999999999819
30
0
40
3.3750000000000027
100
AcDbArc
50
119.37779238339897
51
240.62220761660103
0
ARC
5
110
100
AcDbEntity
8
0
100
AcDbCircle
10
91.950000000000017
20
3.3269483806222313
30
0
40
3.2499999999999929
100
AcDbArc
50
0
51
60.622207616600839
0
ARC
5
111
100
AcDbEntity
8
0
100
AcDbCircle
10
91.950000000000017
20
3.25
30
0
40
3.25
100
AcDbArc
50
-90
51
0
0
CIRCLE
5
112
100
AcDbEntity
8
0
100
AcDbCircle
10
92.700000000000017
20
3.2499999999999996
30
0
40
1.0999999999999943
0
CIRCLE
5
113
100
AcDbEntity
8
0
100
AcDbCircle
10
92.700000000000017
20
14.949999999999967
30
0
40
1.0999999999999943
0
CIRCLE
5
114
100
AcDbEntity
8
0
100
AcDbCircle
10
2.4999999999999991
20
3.2499999999999996
30
0
40
1.0999999999999999
0
CIRCLE
5
115
100
AcDbEntity
8
0
100
AcDbCircle
10
2.5
20
14.950000000000021
30
0
40
1.0999999999999999
0
CIRCLE
5
116
100
AcDbEntity
8
0
100
AcDbCircle
10
12.190000000000008
20
16.491733497317174
30
0
40
0.3499999999999992
0
CIRCLE
5
117
100
AcDbEntity
8
0
100
AcDbCircle
10
14.190000000000001
20
16.491733497317174
30
0
40
0.3499999999999992
0
CIRCLE
5
118
100
AcDbEntity
8
0
100
AcDbCircle
10
22.290000000000006
20
16.491733497317167
30
0
40
0.35000000000000142
0
CIRCLE
5
119
100
AcDbEntity
8
0
100
AcDbCircle
10
24.289999999999999
20
16.491733497317174
30
0
40
0.35000000000000142
0
CIRCLE
5
120
100
AcDbEntity
8
0
100
AcDbCircle
10
32.390000000000008
20
16.491733497317171
30
0
40
0.35000000000000142
0
CIRCLE
5
121
100
AcDbEntity
8
0
100
AcDbCircle
10
34.390000000000001
20
16.491733497317171
30
0
40
0.35000000000000142
0
CIRCLE
5
122
100
AcDbEntity
8
0
100
AcDbCircle
10
42.490000000000009
20
16.491733497317163
30
0
40
0.35000000000000142
0
CIRCLE
5
123
100
AcDbEntity
8
0
100
AcDbCircle
10
44.489999999999995
20
16.49173349731716
30
0
40
0.35000000000000142
0
CIRCLE
5
124
100
AcDbEntity
8
0
100
AcDbCircle
10
52.589999999999996
20
16.491733497317156
30
0
40
0.35000000000000142
0
CIRCLE
5
125
100
AcDbEntity
8
0
100
AcDbCircle
10
54.589999999999996
20
16.491733497317156
30
0
40
0.35000000000000142
0
CIRCLE
5
126
100
AcDbEntity
8
0
100
AcDbCircle
10
62.689999999999998
20
16.491733497317156
30
0
40
0.35000000000000142
0
CIRCLE
5
127
100
AcDbEntity
8
0
100
AcDbCircle
10
64.689999999999998
20
16.491733497317153
30
0
40
0.35000000000000142
0
CIRCLE
5
128
100
AcDbEntity
8
0
100
AcDbCircle
10
72.789999999999992
20
16.49173349731716
30
0
40
0.34999999999999254
0
CIRCLE
5
129
100
AcDbEntity
8
0
100
AcDbCircle
10
74.789999999999992
20
16.491733497317142
30
0
40
0.35000000000000142
0
CIRCLE
5
130
100
AcDbEntity
8
0
100
AcDbCircle
10
82.890000000000001
20
16.491733497317142
30
0
40
0.35000000000000142
0
CIRCLE
5
131
100
AcDbEntity
8
0
100
AcDbCircle
10
84.889999999999986
20
16.491733497317142
30
0
40
0.35000000000000142
0
CIRCLE
5
132
100
AcDbEntity
8
0
100
AcDbCircle
10
84.88000000000001
20
1.7800000000000014
30
0
40
0.35000000000000142
0
CIRCLE
5
133
100
AcDbEntity
8
0
100
AcDbCircle
10
82.879999999999995
20
1.7800000000000002
30
0
40
0.35000000000000142
0
CIRCLE
5
134
100
AcDbEntity
8
0
100
AcDbCircle
10
80.88000000000001
20
1.7799999999999991
30
0
40
0.35000000000000142
0
CIRCLE
5
135
100
AcDbEntity
8
0
100
AcDbCircle
10
74.780000000000001
20
1.7800000000000027
30
0
40
0.35000000000000142
0
CIRCLE
5
136
100
AcDbEntity
8
0
100
AcDbCircle
10
72.780000000000001
20
1.7800000000000005
30
0
40
0.35000000000000142
0
CIRCLE
5
137
100
AcDbEntity
8
0
100
AcDbCircle
10
70.780000000000001
20
1.7800000000000002
30
0
40
0.35000000000000142
0
CIRCLE
5
138
100
AcDbEntity
8
0
100
AcDbCircle
10
64.680000000000007
20
1.7799999999999991
30
0
40
0.35000000000000142
0
CIRCLE
5
139
100
AcDbEntity
8
0
100
AcDbCircle
10
62.680000000000007
20
1.7800000000000005
30
0
40
0.35000000000000142
0
CIRCLE
5
140
100
AcDbEntity
8
0
100
AcDbCircle
10
60.680000000000007
20
1.7800000000000011
30
0
40
0.34999999999999254
0
CIRCLE
5
141
100
AcDbEntity
8
0
100
AcDbCircle
10
54.580000000000013
20
1.7800000000000042
30
0
40
0.35000000000000142
0
CIRCLE
5
142
100
AcDbEntity
8
0
100
AcDbCircle
10
52.580000000000013
20
1.7800000000000062
30
0
40
0.35000000000000142
0
CIRCLE
5
143
100
AcDbEntity
8
0
100
AcDbCircle
10
50.580000000000005
20
1.780000000000004
30
0
40
0.35000000000000142
0
CIRCLE
5
144
100
AcDbEntity
8
0
100
AcDbCircle
10
44.480000000000011
20
1.7800000000000005
30
0
40
0.35000000000000142
0
CIRCLE
5
145
100
AcDbEntity
8
0
100
AcDbCircle
10
42.480000000000011
20
1.7800000000000005
30
0
40
0.35000000000000142
0
CIRCLE
5
146
100
AcDbEntity
8
0
100
AcDbCircle
10
40.480000000000011
20
1.7800000000000005
30
0
40
0.35000000000000142
0
CIRCLE
5
147
100
AcDbEntity
8
0
100
AcDbCircle
10
34.380000000000102
20
1.7800000000000005
30
0
40
0.35000000000000142
0
CIRCLE
5
148
100
AcDbEntity
8
0
100
AcDbCircle
10
32.380000000000017
20
1.7800000000000005
30
0
40
0.35000000000000142
0
CIRCLE
5
149
100
AcDbEntity
8
0
100
AcDbCircle
10
30.379999999999932
20
1.7799999999998981
30
0
40
0.35000000000000142
0
CIRCLE
5
150
100
AcDbEntity
8
0
100
AcDbCircle
10
24.280000000000101
20
1.7800000000000007
30
0
40
0.35000000000000142
0
CIRCLE
5
151
100
AcDbEntity
8
0
100
AcDbCircle
10
22.280000000000015
20
1.7799999999999998
30
0
40
0.35000000000000142
0
CIRCLE
5
152
100
AcDbEntity
8
0
100
AcDbCircle
10
20.27999999999993
20
1.7799999999999974
30
0
40
0.35000000000000142
0
CIRCLE
5
153
100
AcDbEntity
8
0
100
AcDbCircle
10
14.180000000000099
20
1.7800000000000025
30
0
40
0.3499999999999992
0
CIRCLE
5
154
100
AcDbEntity
8
0
100
AcDbCircle
10
12.180000000000016
20
1.7800000000000005
30
0
40
0.3499999999999992
0
CIRCLE
5
155
100
AcDbEntity
8
0
100
AcDbCircle
10
10.179999999999929
20
1.7799999999999989
30
0
40
0.3499999999999992
0
CIRCLE
5
156
100
AcDbEntity
8
0
100
AcDbCircle
10
47.600000000000016
20
9.0999999999999979
30
0
40
0.49999999999999822
0
ENDSEC
0
SECTION
2
OBJECTS
0
DICTIONARY
5
C
100
AcDbDictionary
3
ACAD_GROUP
350
D
3
ACAD_MLINESTYLE
350
17
0
DICTIONARY
5
D
100
AcDbDictionary
0
DICTIONARY
5
1A
330
C
100
AcDbDictionary
0
DICTIONARY
5
17
100
AcDbDictionary
0
ENDSEC
0
EOF
