0
SECTION
2
HEADER
9
$INSUNITS
70
4
9
$ACADVER
1
AC1014
9
$HANDSEED
5
FFFF
0
ENDSEC
0
SECTION
2
TABLES
0
TABLE
2
VPORT
5
8
100
AcDbSymbolTable
0
ENDTAB
0
TABLE
2
LTYPE
5
5
100
AcDbSymbolTable
0
LTYPE
5
14
100
AcDbSymbolTableRecord
100
AcDbLinetypeTableRecord
2
BYBLOCK
70
0
0
LTYPE
5
15
100
AcDbSymbolTableRecord
100
AcDbLinetypeTableRecord
2
BYLAYER
70
0
0
ENDTAB
0
TABLE
2
LAYER
5
2
100
AcDbSymbolTable
70
2
0
LAYER
5
50
100
AcDbSymbolTableRecord
100
AcDbLayerTableRecord
2
0
70
0
6
CONTINUOUS
0
ENDTAB
0
TABLE
2
STYLE
5
3
100
AcDbSymbolTable
70
1
0
STYLE
5
11
100
AcDbSymbolTableRecord
100
AcDbTextStyleTableRecord
2
STANDARD
70
0
0
ENDTAB
0
TABLE
2
VIEW
5
6
100
AcDbSymbolTable
70
0
0
ENDTAB
0
TABLE
2
UCS
5
7
100
AcDbSymbolTable
70
0
0
ENDTAB
0
TABLE
2
APPID
5
9
100
AcDbSymbolTable
70
2
0
APPID
5
12
100
AcDbSymbolTableRecord
100
AcDbRegAppTableRecord
2
ACAD
70
0
0
ENDTAB
0
TABLE
2
DIMSTYLE
5
A
100
AcDbSymbolTable
70
1
0
ENDTAB
0
TABLE
2
BLOCK_RECORD
5
1
100
AcDbSymbolTable
70
1
0
BLOCK_RECORD
5
1F
100
AcDbSymbolTableRecord
100
AcDbBlockTableRecord
2
*MODEL_SPACE
0
BLOCK_RECORD
5
1B
100
AcDbSymbolTableRecord
100
AcDbBlockTableRecord
2
*PAPER_SPACE
0
ENDTAB
0
ENDSEC
0
SECTION
2
BLOCKS
0
BLOCK
5
20
100
AcDbEntity
100
AcDbBlockBegin
2
*MODEL_SPACE
0
ENDBLK
5
21
100
AcDbEntity
100
AcDbBlockEnd
0
BLOCK
5
1C
100
AcDbEntity
100
AcDbBlockBegin
2
*PAPER_SPACE
0
ENDBLK
5
1D
100
AcDbEntity
100
AcDbBlockEnd
0
ENDSEC
0
SECTION
2
ENTITIES
0
LWPOLYLINE
5
100
100
AcDbEntity
8
0
100
AcDbPolyline
90
8
70
1
43
0.0
10
34.606388368205174
20
0.84312763060188245
42
-0.41421356237309476
10
32.606388368205174
20
-1.1568723693981129
10
-3.3936116317947729
20
-1.15687236939811
42
-0.41421356237309415
10
-5.3936116317947693
20
0.84312763060188312
10
-5.3936116317947622
20
15.043127630601859
42
-0.41421356237309492
10
-3.3936116317947596
20
17.043127630601855
10
32.606388368205195
20
17.043127630601855
42
-0.4142135623730947
10
34.606388368205188
20
15.043127630601855
0
CIRCLE
5
101
100
AcDbEntity
8
0
100
AcDbCircle
10
32.106388368205195
20
14.543127630601855
30
0.36289133359972053
40
1.0499999999999985
0
CIRCLE
5
102
100
AcDbEntity
8
0
100
AcDbCircle
10
32.106388368205174
20
1.3431276306018802
30
0.3628913335997197
40
1.0499999999999985
0
CIRCLE
5
103
100
AcDbEntity
8
0
100
AcDbCircle
10
-2.8936116317947636
20
14.543127630601854
30
0.3628913335997147
40
1.0499999999999985
0
CIRCLE
5
104
100
AcDbEntity
8
0
100
AcDbCircle
10
-2.8936116317947729
20
1.3431276306018836
30
0.36289133359971387
40
1.0499999999999989
0
LINE
5
105
100
AcDbEntity
8
0
100
AcDbLine
10
26.876388368205149
20
11.693127630601881
30
0.61289133359969417
11
24.336388368205164
21
11.693127630601881
31
0.61289133359970105
0
LINE
5
106
100
AcDbEntity
8
0
100
AcDbLine
10
26.87638836820517
20
4.1931276306018717
30
0.61289133359967929
11
26.876388368205152
21
11.693127630601881
31
0.61289133359969417
0
LINE
5
107
100
AcDbEntity
8
0
100
AcDbLine
10
24.336388368205174
20
4.1931276306018708
30
0.61289133359968617
11
26.876388368205166
21
4.1931276306018708
31
0.61289133359967929
0
LINE
5
108
100
AcDbEntity
8
0
100
AcDbLine
10
24.336388368205164
20
11.693127630601881
30
0.61289133359970105
11
24.336388368205174
21
4.1931276306018708
31
0.61289133359968617
0
LINE
5
109
100
AcDbEntity
8
0
100
AcDbLine
10
23.976388368205189
20
11.018127630601867
30
0.36289133359969911
11
24.906388368205185
21
11.018127630601866
31
0.3628913335996965
0
LINE
5
110
100
AcDbEntity
8
0
100
AcDbLine
10
23.976388368205189
20
10.868127630601869
30
0.36289133359969883
11
23.976388368205189
21
11.018127630601871
31
0.36289133359969911
0
LINE
5
111
100
AcDbEntity
8
0
100
AcDbLine
10
24.906388368205189
20
10.868127630601867
30
0.36289133359969628
11
23.976388368205193
21
10.868127630601869
31
0.36289133359969883
0
LINE
5
112
100
AcDbEntity
8
0
100
AcDbLine
10
24.906388368205189
20
9.8681276306018653
30
0.36289133359969428
11
23.976388368205193
21
9.868127630601867
31
0.36289133359969689
0
LINE
5
113
100
AcDbEntity
8
0
100
AcDbLine
10
23.976388368205189
20
9.868127630601867
30
0.36289133359969683
11
23.976388368205189
21
10.018127630601867
31
0.36289133359969705
0
LINE
5
114
100
AcDbEntity
8
0
100
AcDbLine
10
23.976388368205189
20
10.018127630601867
30
0.36289133359969705
11
24.906388368205189
21
10.018127630601866
31
0.3628913335996945
0
LINE
5
115
100
AcDbEntity
8
0
100
AcDbLine
10
23.976388368205189
20
8.8681276306018653
30
0.36289133359969483
11
23.976388368205189
21
9.0181276306018656
31
0.36289133359969517
0
LWPOLYLINE
5
116
100
AcDbEntity
8
0
100
AcDbPolyline
90
4
70
1
43
0.0
10
23.976388368205189
20
8.0181276306018638
10
23.976388368205189
20
7.8681276306018644
10
23.976388368205189
20
7.8681276306018653
10
23.976388368205189
20
8.0181276306018656
0
LINE
5
117
100
AcDbEntity
8
0
100
AcDbLine
10
23.976388368205189
20
7.8681276306018644
30
0.36289133359969294
11
23.976388368205189
21
8.0181276306018638
31
0.36289133359969317
0
LINE
5
118
100
AcDbEntity
8
0
100
AcDbLine
10
23.976388368205189
20
6.8681276306018635
30
0.36289133359969084
11
23.976388368205189
21
7.0181276306018638
31
0.36289133359969111
0
LINE
5
119
100
AcDbEntity
8
0
100
AcDbLine
10
23.976388368205189
20
5.8681276306018626
30
0.36289133359968889
11
23.976388368205189
21
6.018127630601863
31
0.36289133359968917
0
LINE
5
120
100
AcDbEntity
8
0
100
AcDbLine
10
23.976388368205189
20
4.8681276306018617
30
0.36289133359968695
11
23.976388368205189
21
5.0181276306018621
31
0.36289133359968723
0
LINE
5
121
100
AcDbEntity
8
0
100
AcDbLine
10
24.906388368205189
20
4.8681276306018608
30
0.3628913335996844
11
23.976388368205193
21
4.8681276306018626
31
0.36289133359968695
0
LINE
5
122
100
AcDbEntity
8
0
100
AcDbLine
10
24.906388368205189
20
5.8681276306018617
30
0.36289133359968639
11
23.976388368205193
21
5.8681276306018626
31
0.36289133359968895
0
LINE
5
123
100
AcDbEntity
8
0
100
AcDbLine
10
24.906388368205189
20
6.8681276306018617
30
0.36289133359968834
11
23.976388368205193
21
6.8681276306018626
31
0.36289133359969089
0
LINE
5
124
100
AcDbEntity
8
0
100
AcDbLine
10
24.906388368205189
20
7.8681276306018635
30
0.36289133359969034
11
23.976388368205193
21
7.8681276306018644
31
0.36289133359969294
0
LINE
5
125
100
AcDbEntity
8
0
100
AcDbLine
10
24.906388368205189
20
8.8681276306018635
30
0.36289133359969239
11
23.976388368205193
21
8.8681276306018653
31
0.36289133359969494
0
LINE
5
126
100
AcDbEntity
8
0
100
AcDbLine
10
23.976388368205189
20
9.0181276306018674
30
0.36289133359969517
11
24.906388368205185
21
9.0181276306018656
31
0.36289133359969256
0
LINE
5
127
100
AcDbEntity
8
0
100
AcDbLine
10
23.976388368205189
20
8.0181276306018656
30
0.36289133359969317
11
24.906388368205185
21
8.0181276306018638
31
0.36289133359969061
0
LINE
5
128
100
AcDbEntity
8
0
100
AcDbLine
10
23.976388368205189
20
7.0181276306018647
30
0.36289133359969117
11
24.906388368205185
21
7.0181276306018638
31
0.36289133359968861
0
LINE
5
129
100
AcDbEntity
8
0
100
AcDbLine
10
23.976388368205189
20
6.018127630601863
30
0.36289133359968917
11
24.906388368205185
21
6.0181276306018621
31
0.36289133359968662
0
LINE
5
130
100
AcDbEntity
8
0
100
AcDbLine
10
23.976388368205189
20
5.0181276306018621
30
0.36289133359968723
11
24.906388368205185
21
5.0277700638972771
31
0.36289133359968473
0
LINE
5
131
100
AcDbEntity
8
0
100
AcDbLine
10
27.23638836820518
20
4.8681276306018582
30
0.36289133359967807
11
26.30638836820518
21
4.8681276306018582
31
0.36289133359968062
0
LINE
5
132
100
AcDbEntity
8
0
100
AcDbLine
10
27.23638836820518
20
5.868127630601859
30
0.36289133359968001
11
26.30638836820518
21
5.8681276306018582
31
0.36289133359968256
0
LINE
5
133
100
AcDbEntity
8
0
100
AcDbLine
10
27.23638836820518
20
6.868127630601859
30
0.36289133359968195
11
26.30638836820518
21
6.8681276306018599
31
0.36289133359968451
0
LINE
5
134
100
AcDbEntity
8
0
100
AcDbLine
10
27.23638836820518
20
7.8681276306018599
30
0.36289133359968406
11
26.30638836820518
21
7.8681276306018608
31
0.36289133359968662
0
LINE
5
135
100
AcDbEntity
8
0
100
AcDbLine
10
27.236388368205176
20
8.8681276306018617
30
0.36289133359968595
11
26.30638836820518
21
8.8681276306018617
31
0.36289133359968856
0
LINE
5
136
100
AcDbEntity
8
0
100
AcDbLine
10
27.236388303385127
20
9.8681276306018635
30
0.36289133359968795
11
26.306388303385127
21
9.8681276306018635
31
0.3628913335996905
0
LINE
5
137
100
AcDbEntity
8
0
100
AcDbLine
10
27.236388368205176
20
10.868127630601865
30
0.36289133359968995
11
26.30638836820518
21
10.868127630601865
31
0.3628913335996925
0
LINE
5
138
100
AcDbEntity
8
0
100
AcDbLine
10
27.236388368205176
20
11.018127630601864
30
0.36289133359969022
11
27.236388368205176
21
10.868127630601862
31
0.36289133359968995
0
LINE
5
139
100
AcDbEntity
8
0
100
AcDbLine
10
27.236388303385127
20
10.018127630601864
30
0.36289133359968817
11
27.236388303385127
21
9.8681276306018635
31
0.36289133359968795
0
LINE
5
140
100
AcDbEntity
8
0
100
AcDbLine
10
27.236388368205176
20
9.0181276306018621
30
0.36289133359968628
11
27.236388368205176
21
8.8681276306018617
31
0.36289133359968595
0
LINE
5
141
100
AcDbEntity
8
0
100
AcDbLine
10
27.23638836820518
20
8.0181276306018603
30
0.36289133359968428
11
27.23638836820518
21
7.8681276306018608
31
0.36289133359968406
0
LINE
5
142
100
AcDbEntity
8
0
100
AcDbLine
10
27.23638836820518
20
7.0181276306018603
30
0.36289133359968229
11
27.23638836820518
21
6.8681276306018599
31
0.36289133359968201
0
LINE
5
143
100
AcDbEntity
8
0
100
AcDbLine
10
27.23638836820518
20
6.0181276306018594
30
0.36289133359968029
11
27.23638836820518
21
5.868127630601859
31
0.36289133359968001
0
LINE
5
144
100
AcDbEntity
8
0
100
AcDbLine
10
27.23638836820518
20
5.0181276306018585
30
0.36289133359967835
11
27.23638836820518
21
4.8681276306018582
31
0.36289133359967807
0
LINE
5
145
100
AcDbEntity
8
0
100
AcDbLine
10
26.306388368205184
20
5.0181276306018594
30
0.36289133359968084
11
27.23638836820518
21
5.0181276306018585
31
0.36289133359967829
0
LINE
5
146
100
AcDbEntity
8
0
100
AcDbLine
10
26.30638836820518
20
6.0181276306018603
30
0.36289133359968284
11
27.23638836820518
21
6.0181276306018594
31
0.36289133359968029
0
LINE
5
147
100
AcDbEntity
8
0
100
AcDbLine
10
26.30638836820518
20
7.0181276306018603
30
0.36289133359968484
11
27.23638836820518
21
7.0181276306018594
31
0.36289133359968229
0
LINE
5
148
100
AcDbEntity
8
0
100
AcDbLine
10
26.30638836820518
20
8.0181276306018603
30
0.36289133359968684
11
27.23638836820518
21
8.0181276306018603
31
0.36289133359968423
0
LINE
5
149
100
AcDbEntity
8
0
100
AcDbLine
10
26.30638836820518
20
9.0181276306018638
30
0.36289133359968873
11
27.23638836820518
21
9.0181276306018621
31
0.36289133359968617
0
LINE
5
150
100
AcDbEntity
8
0
100
AcDbLine
10
26.306388303385134
20
10.018127630601866
30
0.36289133359969078
11
27.236388303385127
21
10.018127630601864
31
0.36289133359968817
0
LINE
5
151
100
AcDbEntity
8
0
100
AcDbLine
10
26.30638836820518
20
11.018127630601866
30
0.36289133359969278
11
27.236388368205176
21
11.018127630601864
31
0.36289133359969022
0
LINE
5
152
100
AcDbEntity
8
0
100
AcDbLine
10
8.606388368205236
20
6.5431276306018678
30
-0.43710866640028212
11
8.6063883682052342
21
3.3431276306018693
31
-0.4371086664002819
0
LINE
5
153
100
AcDbEntity
8
0
100
AcDbLine
10
8.606388368205236
20
7.3431276306018676
30
-0.43710866640028212
11
8.606388368205236
21
8.5431276306018678
31
-0.43710866640028218
0
LINE
5
154
100
AcDbEntity
8
0
100
AcDbLine
10
8.6063883682052396
20
12.543127630601866
30
-0.4371086664002824
11
8.606388368205236
21
9.3431276306018685
31
-0.43710866640028218
0
LINE
5
155
100
AcDbEntity
8
0
100
AcDbLine
10
6.6063883682052342
20
3.3431276306018698
30
-0.43710866640028267
11
8.6063883682052342
21
3.343127630601868
31
-0.43710866640028179
0
LINE
5
156
100
AcDbEntity
8
0
100
AcDbLine
10
6.6063883682052342
20
3.3431276306018698
30
-0.43710866640028267
11
6.606388368205236
21
6.5431276306018678
31
-0.4371086664002829
0
LINE
5
157
100
AcDbEntity
8
0
100
AcDbLine
10
6.606388368205236
20
7.3431276306018685
30
-0.43710866640028295
11
6.6063883682052369
21
8.5431276306018695
31
-0.43710866640028301
0
LINE
5
158
100
AcDbEntity
8
0
100
AcDbLine
10
6.6063883682052396
20
12.543127630601866
30
-0.43710866640028323
11
6.6063883682052369
21
9.3431276306018685
31
-0.43710866640028301
0
LINE
5
159
100
AcDbEntity
8
0
100
AcDbLine
10
6.6063883682052396
20
12.543127630601866
30
-0.43710866640028323
11
8.6063883682052396
21
12.543127630601864
31
-0.43710866640028234
0
LINE
5
160
100
AcDbEntity
8
0
100
AcDbLine
10
1.6563883682052194
20
12.193127630601857
30
-0.43710866640030654
11
0.64619598934021705
21
12.193127630601857
31
-0.43710866640030699
0
LINE
5
161
100
AcDbEntity
8
0
100
AcDbLine
10
1.6563883682052172
20
10.193127630601872
30
-0.4371086664003021
11
0.64619598934021483
21
10.193127630601872
31
-0.43710866640030255
0
LINE
5
162
100
AcDbEntity
8
0
100
AcDbLine
10
5.0763883682052304
20
12.193127630601857
30
-0.43710866640029
11
4.066195989340228
21
12.193127630601857
31
-0.43710866640029045
0
LINE
5
163
100
AcDbEntity
8
0
100
AcDbLine
10
5.0763883682052278
20
10.193127630601872
30
-0.43710866640029444
11
4.0661959893402253
21
10.193127630601872
31
-0.43710866640029489
0
LINE
5
164
100
AcDbEntity
8
0
100
AcDbLine
10
1.6563883682052172
20
8.1931276306018539
30
-0.4371086664003021
11
0.64619598934021483
21
8.1931276306018539
31
-0.43710866640030255
0
LINE
5
165
100
AcDbEntity
8
0
100
AcDbLine
10
5.0763883682052304
20
8.1931276306018486
30
-0.43710866640029
11
4.066195989340228
21
8.1931276306018486
31
-0.43710866640029045
0
LINE
5
166
100
AcDbEntity
8
0
100
AcDbLine
10
1.6563883682052194
20
6.1931276306018486
30
-0.43710866640029766
11
0.64619598934021705
21
6.1931276306018486
31
-0.43710866640029811
0
LINE
5
167
100
AcDbEntity
8
0
100
AcDbLine
10
5.0763883682052304
20
6.1931276306018468
30
-0.43710866640028778
11
4.066195989340228
21
6.1931276306018468
31
-0.43710866640028823
0
LINE
5
168
100
AcDbEntity
8
0
100
AcDbLine
10
1.6563883682052172
20
4.1931276306018539
30
-0.43710866640029322
11
0.64619598934021483
21
4.1931276306018539
31
-0.43710866640029367
0
LINE
5
169
100
AcDbEntity
8
0
100
AcDbLine
10
5.0763883682052278
20
4.1931276306018512
30
-0.43710866640029222
11
4.0661959893402253
21
4.1931276306018512
31
-0.43710866640029267
0
LINE
5
170
100
AcDbEntity
8
0
100
AcDbLine
10
5.0763883682052278
20
3.6931276306018503
30
-0.43710866640029222
11
4.0661959893402253
21
3.6931276306018503
31
-0.43710866640029267
0
LINE
5
171
100
AcDbEntity
8
0
100
AcDbLine
10
1.6563883682052172
20
3.693127630601853
30
-0.43710866640029322
11
0.64619598934021483
21
3.693127630601853
31
-0.43710866640029367
0
LINE
5
172
100
AcDbEntity
8
0
100
AcDbLine
10
1.6563883682052194
20
5.6931276306018477
30
-0.43710866640029766
11
0.64619598934021705
21
5.6931276306018477
31
-0.43710866640029811
0
LINE
5
173
100
AcDbEntity
8
0
100
AcDbLine
10
5.0763883682052304
20
5.693127630601845
30
-0.43710866640028778
11
4.066195989340228
21
5.693127630601845
31
-0.43710866640028823
0
LINE
5
174
100
AcDbEntity
8
0
100
AcDbLine
10
1.6563883682052172
20
7.6931276306018512
30
-0.4371086664003021
11
0.64619598934021483
21
7.6931276306018512
31
-0.43710866640030255
0
LINE
5
175
100
AcDbEntity
8
0
100
AcDbLine
10
5.0763883682052304
20
7.6931276306018468
30
-0.43710866640029
11
4.066195989340228
21
7.6931276306018468
31
-0.43710866640029045
0
LINE
5
176
100
AcDbEntity
8
0
100
AcDbLine
10
5.0763883682052278
20
9.6931276306018717
30
-0.43710866640029444
11
4.0661959893402253
21
9.6931276306018717
31
-0.43710866640029489
0
LINE
5
177
100
AcDbEntity
8
0
100
AcDbLine
10
1.6563883682052172
20
9.6931276306018717
30
-0.4371086664003021
11
0.64619598934021483
21
9.6931276306018717
31
-0.43710866640030255
0
LINE
5
178
100
AcDbEntity
8
0
100
AcDbLine
10
1.6563883682052194
20
11.693127630601856
30
-0.43710866640030654
11
0.64619598934021705
21
11.693127630601856
31
-0.43710866640030699
0
LINE
5
179
100
AcDbEntity
8
0
100
AcDbLine
10
5.0763883682052304
20
11.693127630601856
30
-0.43710866640029
11
4.066195989340228
21
11.693127630601856
31
-0.43710866640029045
0
LINE
5
180
100
AcDbEntity
8
0
100
AcDbLine
10
0.64619598934021472
20
3.693127630601853
30
-0.43710866640029322
11
0.64619598934021472
21
4.1931276306018539
31
-0.43710866640029322
0
LINE
5
181
100
AcDbEntity
8
0
100
AcDbLine
10
0.64619598934021694
20
5.6931276306018477
30
-0.43710866640029766
11
0.64619598934021694
21
6.1931276306018486
31
-0.43710866640029766
0
LINE
5
182
100
AcDbEntity
8
0
100
AcDbLine
10
0.64619598934021472
20
7.6931276306018512
30
-0.4371086664003021
11
0.64619598934021472
21
8.1931276306018539
31
-0.4371086664003021
0
LINE
5
183
100
AcDbEntity
8
0
100
AcDbLine
10
0.64619598934021472
20
9.6931276306018717
30
-0.4371086664003021
11
0.64619598934021472
21
10.193127630601872
31
-0.4371086664003021
0
LINE
5
184
100
AcDbEntity
8
0
100
AcDbLine
10
0.64619598934021694
20
11.693127630601856
30
-0.43710866640030654
11
0.64619598934021694
21
12.193127630601857
31
-0.43710866640030654
0
LINE
5
185
100
AcDbEntity
8
0
100
AcDbLine
10
4.066195989340228
20
11.693127630601856
30
-0.43710866640029045
11
4.066195989340228
21
12.193127630601857
31
-0.43710866640029045
0
LINE
5
186
100
AcDbEntity
8
0
100
AcDbLine
10
4.0661959893402262
20
9.6931276306018717
30
-0.43710866640029489
11
4.0661959893402262
21
10.193127630601872
31
-0.43710866640029489
0
LINE
5
187
100
AcDbEntity
8
0
100
AcDbLine
10
4.066195989340228
20
7.6931276306018468
30
-0.43710866640029045
11
4.066195989340228
21
8.1931276306018486
31
-0.43710866640029045
0
LINE
5
188
100
AcDbEntity
8
0
100
AcDbLine
10
4.066195989340228
20
5.693127630601845
30
-0.43710866640028823
11
4.066195989340228
21
6.1931276306018468
31
-0.43710866640028823
0
LINE
5
189
100
AcDbEntity
8
0
100
AcDbLine
10
4.0661959893402262
20
3.6931276306018503
30
-0.43710866640029267
11
4.0661959893402262
21
4.1931276306018512
31
-0.43710866640029267
0
ENDSEC
0
SECTION
2
OBJECTS
0
DICTIONARY
5
C
100
AcDbDictionary
3
ACAD_GROUP
350
D
3
ACAD_MLINESTYLE
350
17
0
DICTIONARY
5
D
100
AcDbDictionary
0
DICTIONARY
5
1A
330
C
100
AcDbDictionary
0
DICTIONARY
5
17
100
AcDbDictionary
0
ENDSEC
0
EOF
